<?xml version="1.0" standalone="no"?>
<!DOCTYPE svg PUBLIC "-//W3C//DTD SVG 20010904//EN"
 "http://www.w3.org/TR/2001/REC-SVG-20010904/DTD/svg10.dtd">
<svg version="1.0" xmlns="http://www.w3.org/2000/svg"
 width="1200.000000pt" height="1200.000000pt" viewBox="0 0 1200.000000 1200.000000"
 preserveAspectRatio="xMidYMid meet">

<g transform="translate(0.000000,1200.000000) scale(0.100000,-0.100000)"
    aria-current="#000000" stroke="none">
<path d="M5699 10442 c-36 -4 -73 -13 -82 -21 -13 -10 -17 -10 -17 -1 0 9 -10
10 -32 6 -18 -4 -53 -9 -78 -12 -55 -5 -254 -41 -295 -53 -16 -5 -121 -30
-232 -57 l-201 -48 24 -19 c13 -10 34 -17 46 -14 20 4 19 4 -4 6 -34 1 -39 30
-5 32 31 2 29 2 57 -6 17 -4 21 -3 12 3 -11 7 -10 10 3 16 9 3 24 6 33 5 14 0
13 -2 -3 -8 -17 -7 -17 -8 7 -13 15 -3 25 -1 22 3 -3 5 3 9 12 9 10 0 14 3 11
7 -10 10 61 32 83 26 11 -3 26 0 34 6 11 9 23 9 50 -3 44 -18 47 -30 6 -24
-16 3 -30 1 -30 -3 0 -13 -33 -20 -41 -8 -4 6 -12 8 -18 5 -6 -4 -9 -11 -6
-16 7 -11 -24 -22 -38 -13 -7 4 -3 9 9 14 18 7 18 8 -1 8 -11 0 -27 -4 -35 -9
-13 -9 -13 -11 -1 -19 10 -7 0 -11 -35 -16 -27 -3 -57 -11 -67 -16 -10 -6 -39
-8 -65 -5 -36 4 -40 3 -17 -3 29 -8 29 -9 5 -11 -14 -2 -35 -2 -46 -1 -12 1
-24 -5 -28 -14 -3 -8 -13 -15 -23 -15 -15 0 -16 2 -3 10 13 8 12 10 -2 10 -10
0 -18 -4 -18 -9 0 -4 -10 -6 -22 -4 -13 2 -30 -1 -38 -7 -13 -9 -13 -11 0 -20
12 -7 8 -10 -17 -10 -17 0 -39 -7 -47 -16 -9 -8 -16 -11 -16 -5 0 6 -7 11 -16
11 -8 0 -13 -4 -10 -9 3 -5 -6 -12 -20 -15 -13 -4 -48 -17 -77 -31 -38 -17
-55 -20 -65 -13 -10 8 -11 7 -6 -8 4 -10 4 -16 -1 -12 -4 4 -23 -2 -42 -13
-18 -11 -39 -19 -46 -16 -7 3 -5 7 8 12 28 11 65 46 59 56 -9 15 -21 10 -27
-11 -7 -27 -51 -46 -79 -33 -21 9 -21 10 12 26 43 22 47 21 24 -5 -19 -22 -19
-23 1 -8 11 8 26 23 34 33 9 13 21 17 37 13 28 -7 42 10 15 19 -27 8 -181 -63
-161 -75 10 -7 11 -10 3 -10 -7 0 -13 -5 -13 -10 0 -7 6 -7 19 0 26 13 34 13
25 -2 -5 -7 -2 -9 9 -5 11 4 14 2 10 -9 -4 -11 -8 -12 -20 -2 -11 9 -16 9 -23
-2 -4 -7 -15 -10 -25 -7 -10 4 -14 3 -9 -4 3 -6 17 -8 33 -4 40 10 14 -11 -39
-30 -25 -9 -55 -17 -67 -18 -12 -1 -19 -5 -17 -9 3 -5 11 -5 17 -2 9 5 9 4 1
-6 -14 -14 -50 -17 -79 -6 -20 7 -20 7 -1 -8 25 -20 15 -31 -14 -16 -20 10
-20 13 -7 33 8 12 25 22 38 23 57 2 70 5 64 14 -4 7 -12 7 -25 0 -26 -14 -34
-12 -21 4 7 8 27 17 46 20 22 4 35 13 35 22 0 20 -21 13 -115 -39 -57 -32 -72
-44 -62 -52 7 -5 21 -21 30 -35 l17 -26 172 86 c224 112 494 210 758 275 389
96 584 129 873 147 365 22 685 -10 1117 -112 47 -11 103 -24 125 -29 300 -67
700 -221 952 -368 35 -20 46 -22 65 -13 21 10 22 10 5 -4 -18 -14 -17 -15 15
-32 38 -20 295 -193 351 -236 20 -16 37 -26 37 -22 0 4 8 -2 18 -12 9 -11 33
-31 52 -44 19 -13 37 -27 40 -30 27 -29 39 -31 79 -10 23 11 41 24 41 28 0 10
-43 37 -53 34 -5 -1 -6 2 -3 7 3 5 -13 20 -36 34 -24 14 -54 35 -68 46 -14 11
-65 49 -115 85 -49 36 -95 70 -102 75 -29 25 -123 81 -123 73 0 -4 18 -19 40
-32 22 -14 40 -28 40 -32 0 -5 6 -8 14 -8 7 0 19 -7 26 -15 8 -9 9 -15 2 -15
-6 0 -14 5 -17 10 -3 6 -11 10 -16 10 -6 0 3 -11 19 -25 17 -14 34 -25 38 -25
5 0 2 4 -6 10 -8 5 -11 12 -8 15 4 4 16 0 28 -8 13 -9 17 -17 10 -20 -6 -3 -5
-4 2 -3 18 4 47 -26 30 -32 -6 -2 -12 -8 -12 -13 0 -6 5 -7 11 -4 6 4 9 0 7
-11 -2 -11 3 -19 12 -20 25 -2 50 -16 44 -25 -3 -5 2 -6 10 -3 9 3 16 10 16
16 0 5 -4 7 -8 4 -5 -3 -24 8 -43 24 -19 16 -29 29 -23 30 6 0 17 -7 24 -15 7
-8 18 -15 26 -15 7 0 29 -13 47 -30 19 -16 40 -30 46 -30 6 0 11 -5 11 -11 0
-6 -9 -8 -20 -4 -12 4 -20 2 -20 -5 0 -8 11 -10 33 -6 26 5 38 2 52 -14 15
-16 16 -22 5 -35 -18 -22 -4 -31 19 -11 16 15 19 15 31 1 7 -8 9 -16 4 -17
-24 -4 -30 -6 -47 -13 -13 -5 -22 -2 -33 14 -8 11 -22 21 -30 21 -8 0 -12 5
-9 10 3 6 -1 10 -10 10 -8 0 -18 7 -21 15 -4 8 -13 15 -20 15 -8 0 -17 7 -20
15 -4 8 -10 12 -15 9 -5 -3 -14 0 -21 5 -7 6 -37 31 -67 56 -30 25 -62 45 -70
45 -14 0 -14 1 -1 10 12 8 11 10 -7 10 -17 0 -21 4 -16 17 5 12 2 15 -10 10
-19 -7 -81 24 -83 41 -3 23 -4 24 -19 12 -10 -8 -15 -9 -15 -1 0 6 -18 20 -41
31 -23 12 -38 24 -35 28 4 3 12 0 18 -6 15 -15 38 -16 38 -2 0 6 -6 10 -13 10
-17 0 -54 27 -47 34 3 2 20 -2 38 -11 27 -13 35 -14 45 -3 8 9 9 11 0 6 -14
-8 -45 3 -38 14 3 5 -7 17 -22 28 -54 38 -239 135 -333 176 -36 15 -84 36
-106 46 -23 11 -55 22 -70 26 -16 4 -33 10 -39 14 -26 18 -135 51 -147 44 -7
-4 -10 -3 -5 1 10 12 -70 36 -368 110 -478 117 -606 136 -985 140 -157 2 -315
0 -351 -3z m506 -12 c30 0 36 -3 25 -10 -12 -8 -10 -9 10 -9 14 1 39 4 55 8
33 7 133 -5 150 -19 5 -5 35 -7 65 -6 30 2 49 1 43 -1 -28 -10 14 -30 72 -35
33 -3 50 -4 37 -1 -12 2 -20 8 -17 13 3 4 37 0 77 -10 39 -11 76 -16 81 -13 6
4 7 1 2 -7 -6 -10 -4 -12 9 -7 23 9 97 -13 89 -26 -4 -6 7 -7 31 -3 42 8 70
-3 40 -16 -12 -5 0 -6 31 -3 46 5 49 4 31 -10 -19 -14 -19 -15 8 -15 15 0 25
4 21 10 -8 13 2 13 64 -2 28 -6 48 -15 45 -20 -3 -4 7 -8 23 -9 15 0 60 -8 98
-19 52 -13 65 -20 51 -26 -17 -6 -17 -8 -1 -17 12 -6 20 -6 24 2 5 8 16 9 31
3 28 -10 19 -18 -33 -27 -25 -5 -37 -4 -37 4 0 8 -12 10 -36 5 -27 -5 -35 -4
-30 5 4 6 0 12 -11 13 -73 7 -123 19 -117 29 3 5 20 10 37 10 24 1 18 4 -22
11 -38 7 -50 13 -40 19 16 10 -1 12 -25 3 -25 -9 -8 -24 27 -24 21 0 27 -3 19
-9 -7 -4 -34 -4 -60 0 -26 4 -54 8 -62 9 -13 0 -13 1 0 11 12 8 8 9 -14 6 -34
-6 -58 1 -51 13 3 5 -12 8 -32 7 -41 -2 -197 29 -227 45 -10 5 -43 12 -72 15
-30 3 -54 9 -54 12 0 3 -34 7 -76 8 -42 1 -80 5 -83 10 -3 5 -42 9 -86 10 -44
1 -197 3 -340 5 -176 3 -267 8 -282 16 -16 9 -37 9 -75 3 l-53 -10 55 1 c30 1
62 -1 70 -5 8 -3 24 -8 35 -11 11 -3 -12 -4 -52 -1 -42 2 -73 0 -75 -6 -2 -5
-35 -12 -73 -14 -39 -2 -77 -6 -85 -8 -8 -3 -37 -8 -64 -11 -27 -3 -54 -10
-60 -15 -18 -15 -96 -24 -96 -12 0 6 14 11 30 11 17 0 30 4 30 9 0 5 12 12 28
14 16 2 8 5 -21 6 -27 0 -46 -3 -43 -7 3 -4 -9 -13 -25 -19 -23 -9 -32 -8 -43
2 -7 8 -24 12 -37 9 l-24 -5 24 11 c13 6 32 8 42 5 11 -4 19 -2 19 4 0 6 16
11 35 11 19 0 35 3 35 8 0 4 10 8 23 9 82 6 147 17 148 27 1 6 4 0 8 -14 5
-18 14 -24 31 -24 21 0 25 5 25 27 -1 27 10 37 17 15 3 -8 11 -9 24 -3 10 5
43 9 72 10 32 1 57 7 62 15 6 10 23 11 70 6 44 -5 60 -4 55 4 -5 8 44 10 177
6 100 -3 201 -5 223 -6z m-705 -50 c0 -5 -9 -10 -20 -10 -11 0 -20 5 -20 10 0
6 9 10 20 10 11 0 20 -4 20 -10z m1954 -221 c-10 -16 -23 -9 -21 10 1 15 4 17
14 9 7 -5 10 -14 7 -19z m-2787 -5 c-3 -3 -12 -4 -19 -1 -8 3 -5 6 6 6 11 1
17 -2 13 -5z m2848 -4 c-3 -5 -18 -9 -33 -9 l-27 1 30 8 c17 4 31 8 33 9 2 0
0 -3 -3 -9z m-85 -11 c0 -5 4 -8 9 -4 5 3 12 1 15 -4 11 -17 -10 -21 -30 -6
-11 8 -30 11 -44 9 -20 -5 -22 -3 -10 5 19 14 60 14 60 0z m159 -17 c21 -3 35
-11 38 -22 3 -12 11 -16 24 -13 10 3 26 0 34 -7 9 -7 18 -10 22 -7 6 7 61 -19
81 -39 20 -20 2 -17 -33 6 -16 11 -34 20 -40 20 -18 0 60 -47 90 -54 22 -5 26
-4 15 4 -12 8 -11 10 7 10 28 0 21 -23 -10 -37 -17 -8 -9 -9 31 -5 41 4 63 0
102 -19 28 -13 50 -27 50 -31 0 -5 10 -8 23 -8 18 0 19 -2 7 -11 -12 -9 -10
-10 8 -6 16 4 22 1 20 -10 -2 -9 3 -18 11 -21 10 -3 11 0 5 9 -6 11 -4 11 12
-1 29 -22 30 -24 12 -17 -10 4 -21 0 -25 -8 -11 -18 -45 -14 -61 8 -7 9 -18
15 -23 12 -5 -4 -14 -3 -21 1 -8 5 -2 12 17 21 28 13 16 12 -30 -2 -12 -3 -28
1 -40 10 -19 15 -18 16 15 10 l35 -6 -29 15 c-15 9 -44 16 -62 16 -19 0 -34 5
-34 11 0 5 -4 7 -10 4 -13 -8 -69 25 -75 45 -3 9 -21 24 -40 33 -19 9 -35 21
-35 27 0 5 -8 10 -17 9 -11 0 -13 -3 -5 -6 17 -7 15 -20 -4 -27 -9 -4 -13 -2
-8 5 4 8 -1 9 -17 4 -17 -4 -20 -3 -10 3 18 13 5 32 -22 32 -20 0 -20 0 -1 15
18 14 18 14 -3 8 -42 -10 -27 -38 17 -34 13 2 13 0 1 -8 -18 -12 -74 7 -64 22
3 6 1 7 -6 3 -15 -9 -71 15 -71 31 0 13 46 23 70 15 8 -3 30 -7 49 -10z m124
-98 c15 -6 25 -24 12 -24 -13 0 -55 25 -55 32 0 6 6 7 13 4 6 -3 20 -9 30 -12z"/>
<path d="M5898 10423 c7 -3 16 -2 19 1 4 3 -2 6 -13 5 -11 0 -14 -3 -6 -6z"/>
<path d="M5728 10413 c6 -2 18 -2 25 0 6 3 1 5 -13 5 -14 0 -19 -2 -12 -5z"/>
<path d="M6018 10413 c12 -2 32 -2 45 0 12 2 2 4 -23 4 -25 0 -35 -2 -22 -4z"/>
<path d="M5808 10403 c6 -2 18 -2 25 0 6 3 1 5 -13 5 -14 0 -19 -2 -12 -5z"/>
<path d="M6312 10399 c11 -7 -26 -19 -57 -19 -17 0 -17 2 -5 10 12 8 9 10 -12
10 -16 0 -28 -4 -28 -9 0 -18 94 -29 104 -13 3 5 29 8 58 7 33 -2 40 0 18 3
-33 4 -34 5 -10 12 18 6 10 7 -27 6 -28 0 -47 -4 -41 -7z"/>
<path d="M5760 10390 c0 -5 7 -10 15 -10 8 0 15 5 15 10 0 6 -7 10 -15 10 -8
0 -15 -4 -15 -10z"/>
<path d="M6138 10393 c7 -3 16 -2 19 1 4 3 -2 6 -13 5 -11 0 -14 -3 -6 -6z"/>
<path d="M5858 10383 c12 -2 32 -2 45 0 12 2 2 4 -23 4 -25 0 -35 -2 -22 -4z"/>
<path d="M6018 10383 c12 -2 32 -2 45 0 12 2 2 4 -23 4 -25 0 -35 -2 -22 -4z"/>
<path d="M5533 10363 c9 -2 25 -2 35 0 9 3 1 5 -18 5 -19 0 -27 -2 -17 -5z"/>
<path d="M6433 10363 c9 -2 25 -2 35 0 9 3 1 5 -18 5 -19 0 -27 -2 -17 -5z"/>
<path d="M5328 10353 c6 -2 18 -2 25 0 6 3 1 5 -13 5 -14 0 -19 -2 -12 -5z"/>
<path d="M6508 10353 c6 -2 18 -2 25 0 6 3 1 5 -13 5 -14 0 -19 -2 -12 -5z"/>
<path d="M6660 10336 c0 -8 51 -13 56 -5 3 5 -9 9 -25 9 -17 0 -31 -2 -31 -4z"/>
<path d="M6765 10305 c65 -18 93 -18 35 1 -25 7 -54 13 -65 13 -11 0 3 -7 30
-14z"/>
<path d="M6840 10310 c8 -5 24 -10 34 -10 26 0 18 6 -19 14 -22 5 -26 4 -15
-4z"/>
<path d="M6865 10280 c3 -5 8 -10 11 -10 2 0 4 5 4 10 0 6 -5 10 -11 10 -5 0
-7 -4 -4 -10z"/>
<path d="M7210 10227 c0 -7 84 -47 96 -46 5 0 0 4 -11 9 l-20 9 20 1 c12 2 5
5 -15 10 -19 4 -43 11 -52 15 -10 4 -18 5 -18 2z"/>
<path d="M7178 10203 c6 -2 18 -2 25 0 6 3 1 5 -13 5 -14 0 -19 -2 -12 -5z"/>
<path d="M7500 10116 c0 -9 40 -13 46 -5 3 5 -6 9 -20 9 -14 0 -26 -2 -26 -4z"/>
<path d="M7767 9999 c7 -7 15 -10 18 -7 3 3 -2 9 -12 12 -14 6 -15 5 -6 -5z"/>
<path d="M7927 9949 c7 -7 15 -10 18 -7 3 3 -2 9 -12 12 -14 6 -15 5 -6 -5z"/>
<path d="M7960 9936 c0 -2 7 -7 16 -10 8 -3 12 -2 9 4 -6 10 -25 14 -25 6z"/>
<path d="M8010 9885 c0 -2 10 -10 23 -16 20 -11 21 -11 8 4 -13 16 -31 23 -31
12z"/>
<path d="M4602 10209 c-80 -26 -120 -44 -116 -51 4 -7 3 -8 -5 -4 -12 8 -81
-13 -81 -24 0 -4 14 -7 30 -7 17 0 30 4 30 7 0 4 14 10 31 14 17 3 28 10 24
16 -3 5 -1 10 4 10 20 0 11 -28 -11 -33 -34 -9 -18 -14 29 -9 24 2 41 8 38 12
-3 5 4 12 16 15 11 4 18 9 15 12 -7 8 13 33 26 33 5 0 6 -4 3 -10 -3 -5 1 -10
9 -10 9 0 16 7 16 15 0 9 9 15 25 15 14 0 25 5 25 10 0 6 3 9 8 9 4 -1 18 -1
32 0 20 1 22 3 10 11 -20 13 -19 13 -158 -31z m-12 -40 c0 -5 -7 -9 -15 -9 -8
0 -15 -5 -15 -12 0 -6 -3 -9 -6 -6 -8 8 18 48 28 42 4 -3 8 -9 8 -15z"/>
<path d="M4873 10233 c9 -2 25 -2 35 0 9 3 1 5 -18 5 -19 0 -27 -2 -17 -5z"/>
<path d="M4748 10213 c7 -3 16 -2 19 1 4 3 -2 6 -13 5 -11 0 -14 -3 -6 -6z"/>
<path d="M4708 10193 c7 -3 16 -2 19 1 4 3 -2 6 -13 5 -11 0 -14 -3 -6 -6z"/>
<path d="M4406 10104 c-9 -8 -14 -20 -11 -25 4 -5 -2 -9 -11 -9 -10 0 -15 -3
-11 -6 3 -3 15 -3 28 1 17 6 19 9 8 16 -8 5 -9 9 -3 9 7 0 14 7 18 15 7 19 1
19 -18 -1z"/>
<path d="M4445 10104 c-9 -9 -13 -19 -10 -23 4 -3 11 2 16 12 6 9 14 15 20 12
5 -4 9 -1 9 4 0 16 -16 13 -35 -5z"/>
<path d="M4040 9910 c0 -5 5 -10 10 -10 6 0 10 5 10 10 0 6 -4 10 -10 10 -5 0
-10 -4 -10 -10z"/>
<path d="M3865 9870 c-3 -5 -1 -10 4 -10 6 0 10 -3 10 -7 -1 -5 -1 -25 0 -45
l1 -37 34 20 c33 19 34 21 18 38 -9 9 -20 13 -23 8 -4 -5 -12 -6 -19 -2 -9 6
-9 9 -1 15 9 5 8 10 -3 19 -10 8 -16 9 -21 1z m59 -49 c3 -5 -3 -11 -15 -14
-16 -4 -18 -3 -8 9 13 16 16 17 23 5z"/>
<path d="M3715 9774 c-44 -31 -81 -59 -83 -64 -2 -5 6 -11 17 -15 12 -3 21 -9
21 -13 0 -4 4 -14 10 -22 7 -12 20 -6 74 30 36 24 63 46 61 49 -3 2 -23 -8
-45 -23 -35 -23 -55 -24 -32 -2 7 7 8 11 11 37 0 5 6 7 11 4 6 -4 8 -11 5 -16
-4 -5 5 -4 18 2 20 9 25 19 25 50 1 21 -2 39 -6 38 -4 0 -43 -25 -87 -55z m80
11 c-2 -34 -10 -40 -35 -22 l-22 15 21 7 c12 3 21 11 21 16 0 5 4 9 8 9 4 0 7
-11 7 -25z m-61 -47 c-4 -13 -11 -26 -17 -29 -5 -4 -7 -11 -3 -17 9 -15 -7
-22 -24 -11 -10 6 -11 9 -2 9 6 0 12 4 12 9 0 4 -12 6 -27 4 l-28 -5 30 30
c37 37 70 43 59 10z"/>
<path d="M3704 9735 c-10 -8 -14 -15 -8 -15 6 0 17 7 24 15 16 19 9 19 -16 0z"/>
<path d="M8156 9804 c-7 -18 0 -34 16 -34 7 0 6 6 -2 15 -19 23 -1 18 32 -10
16 -14 24 -25 16 -25 -7 0 -4 -6 7 -12 11 -6 23 -16 27 -22 4 -6 9 -8 13 -5 6
7 -84 109 -96 109 -4 0 -10 -7 -13 -16z"/>
<path d="M5720 9689 c-413 -33 -784 -131 -1169 -307 -625 -286 -1172 -775
-1526 -1363 -134 -222 -271 -529 -350 -786 -155 -506 -185 -1101 -84 -1663
104 -577 404 -1187 803 -1633 579 -648 1315 -1039 2171 -1154 188 -25 676 -25
868 0 481 63 919 214 1337 460 248 146 532 369 708 555 294 311 455 537 622
872 194 386 293 719 347 1152 26 217 24 639 -5 855 -54 398 -147 707 -317
1060 -185 383 -398 678 -705 976 -294 287 -609 504 -975 671 -544 249 -1129
352 -1725 305z m833 -344 c682 -117 1235 -421 1567 -862 44 -58 80 -110 80
-114 0 -4 14 -28 30 -52 16 -25 30 -51 30 -58 0 -8 11 -32 25 -54 41 -67 36
-75 -45 -75 -57 0 -74 4 -90 20 -43 43 -60 83 -60 145 0 105 0 105 -91 105
l-79 0 0 -39 0 -39 -720 -1 c-643 -2 -720 0 -720 14 0 13 -50 15 -440 15 -390
0 -440 -2 -440 -15 0 -14 -81 -16 -760 -14 l-760 1 0 39 0 39 -85 0 c-66 0
-83 3 -79 13 4 12 -11 15 -46 8 -3 -1 2 -6 10 -12 13 -9 13 -10 0 -6 -24 7
-50 -11 -44 -31 4 -12 3 -13 -3 -4 -7 9 -19 -5 -42 -49 l-32 -62 43 -45 c24
-24 134 -136 246 -248 111 -112 202 -206 202 -210 0 -4 -57 50 -127 119 -198
194 -376 367 -379 367 -1 0 -10 -21 -20 -47 -10 -27 -24 -59 -31 -73 -7 -14
-13 -31 -13 -37 0 -7 -4 -13 -9 -13 -18 0 67 194 129 296 264 430 777 771
1400 929 206 52 419 80 760 98 98 5 450 -23 593 -48z m-2729 -1019 c-6 -15
-24 -23 -24 -11 0 8 24 34 28 30 1 -1 0 -10 -4 -19z m4277 -167 l32 -31 -79
-79 c-80 -81 -108 -94 -119 -59 -5 16 6 33 50 77 49 49 54 58 38 64 -10 3 -31
2 -47 -2 -79 -23 -102 -104 -47 -160 64 -64 166 -21 173 73 2 26 9 45 21 52
24 15 34 -2 31 -53 -5 -106 -77 -169 -177 -158 -28 4 -53 10 -56 15 -3 5 -16
14 -27 20 -29 15 -54 71 -54 121 0 46 40 121 65 121 8 0 15 7 15 15 0 12 15
15 75 15 70 0 76 -2 106 -31z m239 -94 c0 -5 -5 -3 -10 5 -5 8 -10 20 -10 25
0 6 5 3 10 -5 5 -8 10 -19 10 -25z m-570 -80 c10 -12 10 -21 1 -41 -26 -58
-15 -88 55 -157 60 -58 65 -66 54 -86 -6 -12 -15 -21 -20 -19 -26 9 -141 135
-151 165 -14 44 -6 108 17 134 21 23 28 24 44 4z m-145 -149 c19 -13 18 -15
-12 -46 -19 -20 -36 -29 -44 -25 -7 5 -10 4 -6 -1 3 -5 -9 -27 -28 -48 -32
-37 -64 -45 -73 -18 -3 11 123 152 138 152 3 0 15 -6 25 -14z m-3345 -101 c11
-13 10 -14 -4 -9 -9 3 -16 10 -16 15 0 13 6 11 20 -6z m3401 -72 c77 -75 90
-93 68 -93 -5 0 -7 5 -3 12 4 7 3 8 -5 4 -6 -4 -9 -11 -6 -16 9 -14 -16 -23
-28 -10 -9 10 -9 14 1 17 6 3 10 9 6 14 -3 5 0 9 7 9 17 0 -22 29 -39 30 -8 0
-12 -6 -9 -12 2 -7 9 -12 15 -11 6 2 9 -4 6 -12 -5 -12 -11 -9 -28 12 -11 15
-21 32 -21 38 0 5 -8 9 -18 7 -15 -3 -22 9 -18 31 1 5 -3 6 -9 2 -5 -3 -16 0
-24 7 -12 11 -12 15 1 31 9 9 18 17 21 17 3 0 40 -35 83 -77z m-224 -23 c-6
-8 -33 -35 -61 -60 -32 -28 -40 -33 -22 -12 27 29 25 47 -2 20 -9 -9 -12 -8
-12 6 0 11 17 36 38 56 34 35 38 36 53 21 11 -11 13 -20 6 -31z m30 -49 c-10
-12 -9 -13 9 -3 19 10 22 9 26 -13 6 -31 -12 -38 -40 -15 -25 20 -28 40 -10
58 17 17 31 -8 15 -27z m-149 -43 c-16 -24 -32 -25 -37 -2 -2 12 2 15 13 11
10 -4 16 -1 16 9 0 8 5 12 11 9 7 -5 6 -13 -3 -27z m225 4 c15 -16 15 -18 -1
-18 -9 -1 -26 -5 -37 -9 -19 -9 -19 -8 -2 9 9 10 15 22 12 27 -11 16 11 10 28
-9z m-276 -64 c-3 -7 -5 -2 -5 12 0 14 2 19 5 13 2 -7 2 -19 0 -25z m306 17
c-3 -9 -8 -14 -10 -11 -3 3 -2 9 2 15 9 16 15 13 8 -4z m36 -85 c0 -15 -6 -5
-14 25 -17 62 -17 69 0 30 8 -16 14 -41 14 -55z m-38 33 c13 -16 12 -17 -3 -4
-10 7 -18 15 -18 17 0 8 8 3 21 -13z m-35 -56 c-2 -7 -5 -4 -5 6 -1 10 -5 15
-11 12 -6 -4 -7 1 -3 11 6 15 7 15 15 0 5 -9 7 -22 4 -29z m49 -77 c-3 -5 -12
-10 -18 -10 -7 0 -6 4 3 10 19 12 23 12 15 0z"/>
<path d="M5838 8983 c7 -3 16 -2 19 1 4 3 -2 6 -13 5 -11 0 -14 -3 -6 -6z"/>
<path d="M6148 8983 c7 -3 16 -2 19 1 4 3 -2 6 -13 5 -11 0 -14 -3 -6 -6z"/>
<path d="M5933 8973 c9 -2 25 -2 35 0 9 3 1 5 -18 5 -19 0 -27 -2 -17 -5z"/>
<path d="M6033 8973 c9 -2 25 -2 35 0 9 3 1 5 -18 5 -19 0 -27 -2 -17 -5z"/>
<path d="M8086 8443 c-3 -10 -2 -31 3 -48 9 -28 10 -29 16 -8 5 15 12 20 23
15 15 -5 15 -4 3 11 -11 14 -17 15 -28 5 -13 -10 -15 -9 -11 7 2 11 10 19 16
18 7 -2 12 2 12 7 0 17 -28 11 -34 -7z"/>
<path d="M8167 8333 c-35 -39 -11 -130 36 -134 6 -1 28 -3 47 -5 29 -3 32 -1
19 9 -9 6 -14 18 -11 26 3 8 -1 12 -9 9 -8 -3 -13 -11 -11 -17 3 -15 -29 -13
-51 3 -20 15 -14 42 16 66 18 15 18 16 0 39 -18 22 -19 22 -36 4z"/>
<path d="M7490 7730 c-9 -6 -10 -10 -3 -10 6 0 15 5 18 10 8 12 4 12 -15 0z"/>
<path d="M3465 9597 c-60 -44 -109 -84 -108 -88 2 -5 0 -8 -5 -7 -10 3 -52
-25 -52 -34 0 -4 18 -17 40 -28 l40 -20 68 52 c37 28 69 55 70 60 2 4 8 8 13
8 11 0 117 69 109 71 -3 1 -15 3 -28 4 -17 2 -22 -2 -18 -14 5 -13 4 -13 -8 2
-14 18 -32 24 -21 7 3 -6 -1 -7 -9 -4 -9 3 -16 1 -16 -5 0 -6 10 -11 23 -11
16 0 18 -3 8 -9 -7 -5 -25 -4 -42 2 -22 9 -32 8 -41 -2 -11 -10 -8 -11 16 -5
l28 7 -17 -27 c-10 -14 -24 -26 -31 -26 -8 0 -13 -4 -11 -9 2 -10 -41 -51 -54
-51 -4 0 -15 -7 -24 -17 -13 -13 -18 -14 -25 -3 -4 7 -13 9 -19 6 -6 -4 -16
-4 -21 -1 -19 12 8 32 38 29 15 -2 21 -1 15 2 -22 10 -14 22 18 29 23 5 28 10
18 16 -7 4 -10 11 -6 15 3 4 13 2 20 -4 8 -7 24 -8 43 -3 24 7 26 10 11 16
-10 4 -24 2 -32 -5 -8 -7 -15 -10 -15 -6 0 8 70 71 82 72 4 1 13 2 19 3 5 0 7
6 3 13 -4 6 -3 8 4 4 6 -3 13 -2 17 4 9 15 25 12 19 -3 -3 -8 2 -14 11 -14 19
0 19 4 -2 31 l-18 22 -110 -79z m85 -37 c0 -5 -4 -10 -10 -10 -5 0 -10 5 -10
10 0 6 5 10 10 10 6 0 10 -4 10 -10z"/>
<path d="M8495 9560 c3 -5 10 -10 16 -10 5 0 9 5 9 10 0 6 -7 10 -16 10 -8 0
-12 -4 -9 -10z"/>
<path d="M3410 9500 c0 -5 5 -10 10 -10 6 0 10 5 10 10 0 6 -4 10 -10 10 -5 0
-10 -4 -10 -10z"/>
<path d="M8580 9500 c0 -5 5 -10 10 -10 6 0 10 5 10 10 0 6 -4 10 -10 10 -5 0
-10 -4 -10 -10z"/>
<path d="M3225 9409 c-80 -70 -88 -79 -80 -87 4 -4 19 8 34 26 30 35 37 38 44
20 2 -7 3 -5 2 4 -2 11 2 15 13 11 11 -5 14 -2 10 8 -3 8 1 20 8 27 8 7 14 10
14 6 0 -3 7 -1 15 6 16 14 20 30 7 30 -5 0 -35 -23 -67 -51z"/>
<path d="M8703 9448 c2 -7 8 -12 13 -12 5 1 18 -7 29 -19 17 -17 17 -19 3 -14
-11 4 -18 2 -18 -5 0 -9 -3 -9 -12 0 -7 7 -17 12 -22 12 -6 0 -3 -7 7 -14 10
-8 26 -12 36 -9 20 5 37 -22 21 -32 -6 -4 -10 -1 -10 5 0 6 -5 8 -11 4 -7 -4
-8 -9 0 -17 7 -7 18 -4 37 8 25 16 28 16 39 1 13 -17 29 -22 23 -7 -5 13 -120
111 -130 111 -5 0 -8 -6 -5 -12z m82 -68 c3 -5 1 -10 -4 -10 -6 0 -11 5 -11
10 0 6 2 10 4 10 3 0 8 -4 11 -10z"/>
<path d="M3318 9423 c7 -3 16 -2 19 1 4 3 -2 6 -13 5 -11 0 -14 -3 -6 -6z"/>
<path d="M8668 9423 c7 -3 16 -2 19 1 4 3 -2 6 -13 5 -11 0 -14 -3 -6 -6z"/>
<path d="M3343 9407 c-13 -5 -23 -14 -23 -19 0 -4 -7 -8 -15 -8 -8 0 -15 -5
-15 -11 0 -5 -4 -8 -9 -5 -5 3 -8 -2 -7 -12 1 -12 -5 -16 -23 -14 -17 1 -22
-2 -18 -13 9 -23 -12 -29 -34 -9 -25 22 -24 13 1 -16 l21 -24 46 45 c65 62 72
67 91 78 24 14 11 20 -15 8z"/>
<path d="M8630 9410 c0 -6 3 -10 8 -10 7 0 26 -16 107 -88 31 -27 52 -39 58
-33 12 12 -1 34 -14 25 -6 -3 -28 12 -50 35 -22 23 -45 41 -50 41 -5 0 -9 4
-9 8 0 5 -11 14 -25 20 -15 7 -25 8 -25 2z"/>
<path d="M3260 9398 c0 -15 18 -17 36 -4 17 13 17 14 -9 13 -15 -1 -27 -5 -27
-9z"/>
<path d="M8785 9339 c-4 -6 -5 -12 -2 -15 2 -3 7 2 10 11 7 17 1 20 -8 4z"/>
<path d="M8840 9331 c0 -5 9 -11 21 -14 16 -4 18 -3 8 9 -13 16 -29 19 -29 5z"/>
<path d="M8810 9321 c0 -5 7 -12 16 -15 24 -9 28 -7 14 9 -14 17 -30 20 -30 6z"/>
<path d="M8915 9250 c-4 -6 -11 -8 -16 -5 -12 8 -11 2 5 -30 8 -15 17 -22 21
-16 3 6 12 11 18 11 7 0 4 -6 -5 -14 -13 -10 -15 -15 -6 -24 7 -7 8 -12 2 -12
-10 0 -38 28 -42 43 -1 4 -4 6 -5 5 -2 -2 -11 3 -20 11 -31 25 -17 1 22 -41
23 -23 44 -37 51 -33 7 4 10 1 8 -10 -2 -10 3 -20 11 -23 8 -3 11 0 7 7 -4 6
-2 11 3 11 6 0 11 5 11 10 0 6 -6 10 -14 10 -8 0 -17 7 -20 16 -8 22 -8 26 4
19 14 -8 13 18 -1 32 -6 6 -18 9 -25 6 -8 -3 -14 0 -14 6 0 6 8 11 18 11 23 0
66 -47 49 -53 -7 -3 1 -18 21 -39 17 -19 32 -42 32 -53 0 -10 3 -15 6 -12 4 4
15 -3 26 -15 10 -12 21 -18 24 -15 4 3 -6 17 -21 31 -15 14 -24 30 -20 36 8
13 58 -55 60 -82 2 -23 11 -32 20 -19 3 6 1 11 -6 11 -8 0 -8 4 1 16 11 13 5
23 -41 72 -30 31 -55 59 -56 61 -2 2 -6 2 -9 -2 -4 -3 1 -13 10 -22 26 -27 18
-31 -9 -5 -19 18 -22 26 -13 32 9 5 2 17 -25 43 -40 37 -52 42 -62 25z"/>
<path d="M3009 9211 c-42 -41 -211 -231 -222 -248 -4 -7 -1 -10 10 -9 10 2 18
7 18 12 0 19 18 35 32 30 11 -5 13 -2 9 10 -4 10 -2 14 6 11 7 -2 12 -14 11
-26 -5 -38 14 -22 21 19 3 22 10 40 14 40 12 0 42 56 34 65 -4 5 -1 5 6 1 7
-5 15 2 22 18 5 14 18 30 30 36 11 6 17 16 14 22 -5 8 -1 9 10 5 10 -4 22 -7
27 -7 6 0 8 -9 4 -19 -10 -32 16 -37 42 -7 25 30 24 40 -10 58 -19 10 -20 9
-10 -4 13 -15 8 -28 -9 -28 -5 0 -7 4 -4 9 4 5 -4 7 -16 3 -22 -5 -22 -4 -5
15 18 21 22 34 10 32 -5 -1 -24 -18 -44 -38z m84 -31 c-10 -11 -22 -20 -27
-20 -5 0 -1 9 9 20 10 11 22 20 26 20 5 0 1 -9 -8 -20z m-175 -102 c-8 -12
-20 -24 -27 -26 -7 -2 -3 7 10 22 28 32 37 34 17 4z"/>
<path d="M3024 9165 c-4 -8 0 -23 7 -32 12 -14 11 -15 -11 -10 -14 4 -20 4
-13 1 7 -3 9 -12 6 -20 -7 -19 0 -18 27 6 20 17 21 20 6 26 -11 4 -15 13 -11
25 7 22 -3 26 -11 4z"/>
<path d="M9037 9047 c-5 -14 40 -73 49 -64 3 3 -4 15 -16 27 -11 11 -18 25
-15 30 3 5 1 11 -4 14 -5 3 -11 0 -14 -7z"/>
<path d="M9134 9034 c3 -9 6 -21 6 -27 0 -8 3 -8 11 0 13 13 5 43 -12 43 -6 0
-8 -7 -5 -16z"/>
<path d="M9070 9025 c7 -9 15 -13 17 -11 7 7 -7 26 -19 26 -6 0 -6 -6 2 -15z"/>
<path d="M9104 8992 c3 -5 0 -12 -6 -15 -10 -3 -9 -9 3 -22 15 -15 17 -15 23
0 4 11 2 14 -6 9 -8 -5 -9 -2 -5 9 3 9 1 19 -5 23 -6 4 -8 3 -4 -4z"/>
<path d="M2835 8960 c1 -17 8 -37 15 -43 10 -10 12 -9 7 4 -3 11 0 16 10 15 9
0 18 6 21 14 3 8 1 12 -3 7 -5 -4 -18 2 -31 14 l-22 20 3 -31z"/>
<path d="M9305 8799 c-8 -34 13 -58 53 -59 13 0 22 -6 22 -16 0 -8 -4 -12 -10
-9 -6 3 -7 -1 -3 -10 5 -13 7 -14 14 -3 9 14 12 5 10 -27 -1 -14 1 -16 7 -7 7
10 11 10 22 -3 9 -11 9 -15 1 -15 -13 0 2 -34 26 -58 18 -18 17 -1 -3 26 -8
12 -12 22 -7 22 14 0 45 -63 34 -69 -5 -4 -3 -14 6 -26 13 -16 15 -17 10 -2
-4 9 -2 17 3 17 6 0 10 -4 10 -9 0 -7 30 -49 75 -103 28 -34 37 -60 26 -71 -8
-8 -11 -5 -11 9 0 11 -11 31 -25 44 -21 20 -25 21 -31 7 -3 -9 1 -26 10 -39
12 -17 16 -19 16 -6 0 9 -6 18 -12 21 -7 2 -9 8 -5 13 12 13 38 -26 32 -47 -6
-17 9 -20 31 -7 6 4 16 -3 23 -18 15 -34 13 -43 -5 -19 -13 17 -16 18 -24 5
-13 -20 -12 -30 1 -30 5 0 7 5 4 10 -12 19 9 10 30 -13 11 -12 17 -18 13 -13
-11 14 -10 28 2 21 5 -3 21 -30 36 -60 20 -43 23 -59 15 -74 -8 -13 -8 -22 -1
-26 6 -4 10 -3 9 2 -7 42 13 42 33 0 11 -23 13 -39 6 -50 -6 -11 -5 -17 2 -17
5 0 10 6 10 13 0 8 3 8 9 -2 5 -8 7 -20 4 -28 -3 -7 0 -13 7 -13 7 0 9 -7 6
-15 -21 -52 -21 -51 1 -32 20 17 20 17 33 -28 7 -26 17 -42 23 -38 6 4 8 0 4
-10 -3 -9 -2 -19 3 -22 6 -4 10 -14 10 -24 0 -10 7 -24 15 -31 9 -7 13 -21 10
-31 -4 -11 -2 -19 4 -19 6 0 11 -12 11 -26 0 -15 4 -23 10 -19 6 4 10 3 9 -2
-1 -4 3 -21 9 -36 15 -35 15 -38 0 -34 -7 1 -12 -4 -11 -10 5 -23 -5 -14 -21
19 -22 43 -20 55 3 27 l20 -24 -6 23 c-11 45 -50 52 -46 8 2 -29 2 -29 -6 -6
-5 14 -9 38 -10 53 -1 16 -5 26 -10 23 -5 -3 -12 1 -15 10 -9 22 -8 26 6 18 7
-5 8 -3 3 6 -4 7 -2 16 5 20 6 4 10 16 8 26 -4 15 -8 12 -21 -16 -14 -29 -16
-31 -12 -8 3 14 8 34 12 44 4 12 3 15 -5 10 -7 -4 -12 -15 -12 -24 0 -25 -16
-2 -30 43 -7 22 -17 43 -23 46 -13 9 -20 92 -7 84 6 -3 10 -1 10 5 0 6 -11 8
-26 6 -20 -4 -23 -2 -15 8 6 8 9 21 5 30 -9 24 -23 19 -18 -6 3 -17 1 -15 -10
7 -9 17 -15 36 -16 43 0 7 -5 10 -12 6 -8 -5 -9 0 -5 15 3 13 3 20 0 17 -7 -7
-24 12 -46 52 -19 34 -13 44 9 15 7 -10 15 -15 18 -12 8 8 -16 37 -34 41 -23
5 -100 128 -100 160 0 15 -4 28 -9 28 -5 0 -13 9 -16 21 -4 12 -12 18 -21 15
-7 -3 -16 -1 -19 4 -4 6 -1 10 4 10 17 0 13 17 -5 24 -10 4 -13 2 -8 -6 5 -7
3 -8 -5 -4 -7 5 -10 14 -7 22 3 8 1 14 -4 14 -11 0 -50 36 -50 46 0 3 -7 12
-15 20 -8 9 -15 20 -15 26 0 6 6 6 15 -2 16 -14 20 -3 6 19 -6 9 -10 10 -16 2
-5 -9 -10 -9 -21 0 -12 9 -12 15 -2 27 10 13 10 14 0 8 -18 -11 -43 19 -35 40
6 16 5 17 -9 4 -12 -11 -13 -19 -4 -32 6 -10 14 -18 18 -18 5 0 8 -5 8 -10 0
-10 74 -117 90 -130 3 -3 42 -61 86 -130 281 -433 402 -733 539 -1330 20 -85
40 -171 45 -190 5 -19 21 -118 36 -220 23 -162 27 -219 27 -455 2 -403 -30
-633 -153 -1110 -52 -201 -53 -205 -83 -295 -77 -233 -171 -442 -293 -652 -46
-80 -59 -109 -50 -118 8 -10 7 -11 -4 -8 -10 3 -38 -29 -87 -100 -40 -58 -80
-113 -90 -124 -12 -14 -14 -21 -5 -30 9 -9 14 -4 23 20 6 18 15 32 20 32 5 0
4 -10 -2 -22 -33 -63 -34 -68 -19 -68 6 0 10 6 10 13 0 7 9 30 21 51 11 21 15
35 10 31 -18 -11 -12 9 14 48 21 31 29 36 44 27 10 -5 21 -7 23 -4 14 13 15
-26 2 -43 -14 -17 -15 -16 -9 7 5 19 4 22 -4 10 -10 -13 -12 -13 -21 0 -5 8
-10 10 -10 4 0 -6 8 -20 18 -31 17 -21 18 -20 49 27 27 40 30 50 18 60 -10 9
-15 7 -20 -9 -6 -21 -21 -23 -41 -6 -13 11 -8 28 7 20 5 -4 9 4 9 15 0 16 4
20 16 16 12 -5 14 -1 9 15 -5 14 -3 19 3 15 13 -8 24 8 27 38 4 35 4 36 19 30
9 -3 19 4 26 18 10 21 10 21 -3 6 -26 -33 -38 -17 -13 17 13 18 15 17 45 -15
17 -19 31 -28 31 -21 0 8 -11 23 -25 35 -17 15 -23 27 -19 44 8 26 19 28 33 5
10 -17 10 -17 11 -1 0 9 -4 19 -9 22 -4 3 -6 18 -3 32 4 25 6 26 18 10 8 -11
14 -13 19 -7 3 6 1 11 -4 11 -14 0 -14 37 -1 42 6 2 17 21 25 43 8 22 19 39
25 37 7 -2 9 6 5 20 -6 21 -5 22 8 5 14 -17 15 -17 21 0 4 10 2 19 -3 21 -14
5 -14 42 -1 42 5 0 9 3 8 7 0 5 3 17 7 28 4 11 17 43 27 70 11 28 24 55 31 60
22 19 37 54 27 60 -16 10 -11 28 5 21 12 -4 14 0 9 19 -5 19 -2 25 10 25 11 0
16 7 15 23 -4 43 1 67 14 64 6 -1 15 -6 19 -12 4 -5 5 19 2 53 -2 34 -1 62 4
62 4 0 13 30 19 67 7 37 17 69 23 71 5 2 10 13 10 24 0 37 23 147 30 143 4 -2
7 8 8 23 0 15 6 38 12 52 9 22 10 20 6 -17 -2 -24 -1 -43 4 -43 9 0 23 160 16
181 -3 8 -1 30 3 49 8 33 9 33 10 7 1 -16 5 -26 11 -22 6 3 7 17 4 29 -3 13 0
65 6 117 7 52 12 108 12 124 0 26 1 27 9 10 6 -14 7 -8 2 19 -4 26 -2 41 8 46
10 7 10 16 2 44 -6 20 -8 36 -4 36 4 0 8 53 9 117 2 70 7 120 13 124 8 5 8 9
0 13 -13 8 -15 43 -3 48 5 2 5 39 0 83 -5 44 -10 121 -13 170 -2 50 -8 130
-13 179 -5 50 -7 108 -4 130 3 26 2 37 -6 32 -7 -4 -15 15 -22 51 -6 32 -14
67 -16 78 -4 14 -3 16 4 7 8 -11 10 -11 15 2 4 10 -1 17 -14 21 -18 6 -20 12
-14 43 4 21 9 39 11 42 9 9 22 -22 17 -41 -3 -10 0 -19 6 -19 6 0 11 10 11 22
0 30 6 20 14 -25 5 -25 4 -37 -2 -33 -6 3 -2 -12 9 -33 22 -46 23 -51 9 -51
-5 0 -10 8 -10 17 0 9 -3 14 -6 10 -8 -8 18 -77 27 -71 10 6 23 -80 16 -106
-3 -11 -2 -18 3 -15 4 2 7 -14 7 -38 -1 -23 5 -76 12 -117 19 -108 19 -496 2
-645 l-15 -120 -12 45 c-7 25 -12 39 -13 31 -1 -7 6 -40 15 -73 14 -54 14 -62
0 -77 -20 -21 -20 -29 -2 -46 11 -12 14 -7 19 29 3 23 3 53 0 66 -4 15 -2 21
4 17 35 -22 42 659 9 883 -9 58 -20 132 -25 165 -8 56 -64 304 -113 505 -49
204 -111 395 -173 535 -7 17 -19 46 -26 65 -7 19 -45 100 -85 180 -70 138
-112 212 -221 380 -51 79 -232 330 -238 330 -2 0 -6 -14 -10 -31z m38 -24 c17
-24 13 -32 -9 -17 -13 9 -26 42 -16 42 4 0 15 -12 25 -25z m157 -322 c0 -19
-6 -16 -24 12 -17 25 -16 25 4 13 11 -7 20 -18 20 -25z m390 -762 c0 -20 32
-39 38 -22 8 25 21 8 16 -21 -5 -26 -3 -30 6 -18 9 12 10 11 5 -8 -5 -16 -3
-22 7 -20 8 2 14 -10 16 -34 2 -21 8 -38 13 -38 6 0 8 -16 4 -37 -3 -23 -2
-31 3 -20 6 15 11 7 21 -32 8 -34 10 -56 3 -64 -5 -6 -12 -25 -16 -41 -6 -26
-6 -27 9 -12 9 9 13 20 10 26 -3 5 -2 10 4 10 19 0 29 -66 15 -109 -5 -17 -4
-22 4 -17 8 5 12 0 12 -13 0 -10 5 -21 12 -23 7 -3 12 -21 12 -41 0 -19 4 -33
8 -31 4 3 8 -4 8 -15 0 -10 3 -28 6 -38 5 -17 5 -17 -9 -1 -17 22 -37 6 -38
-31 0 -15 -7 1 -15 34 -8 33 -13 66 -10 75 2 8 5 2 6 -15 l2 -30 8 30 8 30 2
-30 2 -30 8 29 c6 20 5 32 -5 42 -10 11 -14 11 -17 2 -7 -21 -41 20 -35 42 3
11 1 20 -5 20 -6 0 -7 11 -4 26 4 14 3 23 -2 21 -10 -7 -46 129 -37 143 3 5 1
10 -5 10 -7 0 -9 12 -4 35 5 26 3 35 -6 33 -7 -2 -14 8 -15 20 -1 13 -8 28
-15 32 -11 7 -10 12 4 25 13 13 14 20 5 31 -15 19 -23 18 -15 -2 5 -14 4 -15
-8 -5 -7 6 -16 24 -18 39 -3 15 -9 35 -13 45 -4 10 -3 17 4 17 6 0 11 -9 11
-19z m217 -923 c-3 -7 -5 -2 -5 12 0 14 2 19 5 13 2 -7 2 -19 0 -25z m-57
-1385 c-10 -16 -11 -15 -6 7 3 14 6 32 7 40 1 8 4 5 6 -7 2 -12 -1 -30 -7 -40z"/>
<path d="M9962 7580 c0 -14 2 -19 5 -12 2 6 2 18 0 25 -3 6 -5 1 -5 -13z"/>
<path d="M9940 7565 c0 -14 4 -25 9 -25 4 0 6 11 3 25 -2 14 -6 25 -8 25 -2 0
-4 -11 -4 -25z"/>
<path d="M9970 7487 c4 -41 5 -41 8 -8 2 18 0 37 -5 42 -5 5 -6 -11 -3 -34z"/>
<path d="M9977 7427 c-11 -29 -9 -43 4 -30 6 6 9 19 7 29 -3 18 -4 18 -11 1z"/>
<path d="M10001 7404 c0 -11 3 -14 6 -6 3 7 2 16 -1 19 -3 4 -6 -2 -5 -13z"/>
<path d="M10020 7301 c0 -10 19 -25 25 -20 1 2 -3 10 -11 17 -8 7 -14 8 -14 3z"/>
<path d="M2635 8768 c-67 -90 -85 -120 -78 -131 3 -5 1 -7 -5 -3 -10 6 -52
-43 -52 -62 0 -6 -4 -12 -8 -14 -8 -3 -132 -184 -132 -191 0 -2 -22 -42 -50
-88 -54 -90 -62 -113 -30 -84 11 10 20 24 20 32 0 8 5 11 12 7 8 -5 9 -2 5 9
-3 10 -2 17 3 17 6 0 10 9 10 19 0 24 69 127 82 123 5 -1 7 8 4 20 -3 13 -3
17 0 11 9 -19 26 -16 22 5 -3 21 9 42 25 42 7 0 6 -4 -3 -11 -11 -8 -12 -12
-2 -16 17 -7 15 -30 -4 -37 -11 -4 -14 -13 -10 -30 4 -15 0 -28 -9 -36 -8 -7
-15 -19 -15 -26 0 -8 -7 -11 -17 -8 -14 5 -15 4 -4 -4 10 -7 10 -14 2 -30 -6
-11 -11 -27 -11 -34 0 -7 17 16 38 52 37 64 144 223 217 325 85 119 89 125 77
137 -9 9 -12 7 -12 -10 0 -11 -7 -25 -16 -30 -9 -5 -16 -12 -15 -15 1 -12 -41
-78 -47 -73 -10 10 -11 65 -2 71 6 3 10 12 10 18 -1 7 -10 1 -20 -12 -11 -13
-20 -19 -20 -15 1 5 12 23 26 39 15 17 23 24 20 18 -4 -7 -2 -21 4 -30 9 -16
10 -15 5 5 -7 23 9 31 18 10 4 -10 8 -9 16 2 14 19 14 50 0 50 -5 0 -8 4 -4 9
3 5 2 12 -3 15 -5 3 -26 -18 -47 -46z m46 -1 c-1 -12 -15 -9 -19 4 -3 6 1 10
8 8 6 -3 11 -8 11 -12z m-71 -113 c0 -8 -4 -13 -8 -10 -5 3 -7 -8 -4 -23 2
-17 -3 -40 -14 -56 -16 -24 -19 -25 -29 -11 -16 22 -24 20 -18 -4 3 -11 10
-20 16 -20 6 0 7 -3 3 -7 -4 -5 -11 -7 -14 -6 -4 1 -15 -6 -24 -14 -22 -20
-24 -1 -3 21 17 16 19 26 7 26 -4 0 -16 -13 -25 -30 -17 -28 -17 -29 3 -40 13
-7 20 -7 20 0 0 5 5 10 10 10 6 0 3 -12 -7 -26 -15 -24 -17 -25 -24 -8 -7 17
-8 17 -8 -3 -1 -28 -21 -73 -33 -73 -5 0 -2 10 6 23 15 22 16 70 3 84 -11 10
-8 25 3 18 6 -3 10 1 10 9 0 9 8 24 18 34 9 10 23 30 31 45 11 21 17 24 28 16
7 -6 14 -8 14 -3 1 5 2 14 4 19 1 6 3 18 3 28 2 21 32 23 32 1z m20 -34 c0 -5
-4 -10 -10 -10 -5 0 -10 5 -10 10 0 6 5 10 10 10 6 0 10 -4 10 -10z"/>
<path d="M2641 8693 c-1 -6 -4 -20 -7 -30 -5 -17 -5 -17 6 0 6 10 9 23 6 30
-3 9 -5 9 -5 0z"/>
<path d="M9380 8641 c0 -5 7 -15 17 -22 15 -13 15 -12 4 9 -12 23 -21 28 -21
13z"/>
<path d="M2396 8369 c-8 -12 -13 -26 -10 -31 4 -5 12 3 20 18 18 34 11 43 -10
13z"/>
<path d="M9653 8245 c-7 -8 -9 -16 -4 -19 5 -3 12 1 15 10 8 22 4 25 -11 9z"/>
<path d="M9682 8205 c0 -16 2 -22 5 -12 2 9 2 23 0 30 -3 6 -5 -1 -5 -18z"/>
<path d="M2338 8161 c-8 -11 -26 -25 -41 -32 -19 -8 -27 -20 -27 -37 0 -21 -2
-22 -15 -12 -12 10 -15 10 -15 -4 0 -9 -4 -16 -10 -16 -23 0 -6 43 19 52 12 3
12 6 -2 11 -19 7 -49 -45 -111 -198 -21 -49 -43 -103 -51 -120 -44 -97 -134
-406 -179 -620 -10 -44 -30 -134 -46 -200 -34 -143 -47 -240 -31 -231 6 4 11
17 12 29 1 20 2 20 9 -3 4 -14 5 6 2 48 -3 47 -1 72 6 72 6 0 12 -6 15 -12 2
-7 2 12 0 42 -3 32 -1 50 4 43 5 -7 9 4 9 30 1 62 15 127 26 121 5 -3 6 7 3
23 l-5 28 14 -30 c12 -24 15 -26 16 -10 0 12 -5 26 -11 32 -7 7 -8 20 -3 34 5
13 9 29 10 34 4 27 6 29 14 10 7 -16 8 -14 7 12 -1 17 -6 29 -11 25 -5 -3 -6
2 -3 12 4 9 16 56 28 104 11 48 23 89 26 92 3 3 3 -8 -1 -25 -5 -22 -4 -26 4
-15 5 8 7 27 4 43 -3 16 -1 27 5 27 6 0 11 -8 12 -17 0 -16 1 -15 8 2 7 17 8
16 15 -8 9 -36 -3 -99 -17 -90 -6 4 -8 -2 -4 -16 6 -23 -7 -81 -25 -119 -7
-13 -11 -39 -11 -57 1 -19 -2 -33 -7 -30 -4 2 -10 -21 -14 -53 -4 -31 -11 -71
-16 -87 -8 -26 -9 -24 -5 15 4 38 3 41 -5 20 -6 -13 -8 -41 -5 -62 5 -26 3
-38 -5 -38 -7 0 -10 -7 -6 -15 3 -9 -1 -35 -9 -58 -8 -23 -15 -67 -16 -97 -1
-44 -3 -50 -9 -30 -6 17 -7 7 -4 -30 3 -33 2 -50 -3 -43 -6 8 -9 -11 -9 -50 0
-76 -11 -245 -22 -352 -5 -44 -5 -81 0 -83 12 -5 10 -36 -4 -50 -9 -9 -9 -12
1 -12 10 0 12 -21 9 -96 -2 -53 -1 -88 3 -78 4 11 6 -18 4 -63 -2 -47 0 -83 6
-83 11 0 11 -39 -2 -65 -7 -15 -8 -10 -5 20 4 31 3 36 -5 22 -6 -11 -8 -35 -3
-60 l7 -42 13 40 13 40 -2 -57 c-1 -31 1 -54 6 -51 4 2 7 -16 7 -41 0 -25 4
-46 9 -46 5 0 7 -9 4 -20 -3 -11 -1 -26 5 -33 5 -6 12 -30 15 -52 l6 -40 -13
39 c-7 22 -15 35 -19 29 -4 -6 0 -24 8 -39 19 -36 19 -88 2 -103 -20 -16 -26
-4 -23 48 3 38 3 40 -3 11 -6 -34 -7 -33 -15 22 -4 32 -5 62 -2 67 3 5 -1 12
-10 15 -11 4 -14 13 -10 31 4 17 2 25 -6 25 -9 0 -8 3 2 10 13 9 13 11 0 20
-13 9 -13 11 0 21 11 8 12 12 2 16 -6 2 -10 9 -7 14 3 4 -1 19 -8 31 -10 15
-17 66 -20 153 -4 77 -10 131 -16 133 -15 5 -14 39 1 44 14 5 15 59 6 284 -7
164 0 303 12 254 3 -14 5 14 5 62 -1 48 -4 90 -7 93 -16 17 -33 -245 -33 -520
0 -257 4 -322 23 -455 23 -162 54 -323 77 -400 7 -25 18 -72 25 -105 7 -33 16
-69 20 -80 8 -19 11 -33 27 -123 3 -18 9 -35 14 -38 5 -3 9 -16 9 -30 0 -21
96 -322 106 -333 2 -2 7 -1 10 2 4 4 -3 29 -15 56 -11 27 -21 57 -21 65 0 30
18 16 29 -21 l11 -38 -5 35 c-3 19 -12 40 -20 46 -8 6 -15 20 -16 30 -1 14 -3
13 -8 -6 -6 -22 -9 -19 -20 28 -7 29 -11 68 -9 86 2 23 0 32 -8 29 -8 -3 -10
5 -6 22 3 18 1 25 -9 23 -10 -2 -13 7 -12 32 2 28 0 31 -7 15 l-9 -20 0 20 c0
11 2 31 6 45 6 24 7 23 20 -10 12 -31 13 -32 7 -5 -4 17 -6 38 -6 48 0 9 -6
17 -14 17 -8 0 -14 -6 -13 -12 1 -7 1 -22 0 -33 -4 -40 -22 26 -22 82 -1 29
-4 53 -8 53 -4 0 -12 19 -18 43 -7 23 -15 50 -18 60 -5 11 -2 17 8 17 9 0 17
8 19 18 3 9 5 -1 5 -24 0 -36 23 -89 46 -105 5 -4 9 -22 10 -42 0 -20 5 -34 9
-31 7 5 12 -21 10 -56 0 -8 3 -17 8 -20 4 -3 11 -23 14 -45 4 -26 3 -31 -2
-15 -4 14 -10 20 -13 15 -3 -6 0 -26 7 -45 8 -21 13 -27 13 -16 2 44 15 1 19
-61 4 -64 23 -108 36 -80 3 6 3 -4 0 -23 -4 -27 -3 -32 6 -20 8 12 9 9 4 -12
-5 -22 -3 -28 10 -28 19 0 20 -10 4 -45 -9 -20 -9 -28 1 -38 9 -9 11 -6 9 12
-2 13 3 26 10 28 7 3 12 1 11 -4 -4 -14 13 -67 29 -91 12 -19 13 -28 4 -43
-15 -23 -15 -39 -2 -39 5 0 7 6 4 14 -3 8 -1 17 5 21 10 5 12 2 11 -20 0 -3 7
-19 15 -35 9 -17 13 -35 10 -41 -4 -5 -1 -8 5 -7 7 2 14 -4 15 -13 2 -9 6 -27
10 -40 5 -19 2 -17 -15 9 -12 17 -26 32 -31 32 -16 0 -10 -16 19 -48 25 -28
29 -29 39 -14 11 15 12 15 12 -5 1 -29 22 -73 34 -73 6 0 2 -9 -8 -20 -10 -11
-15 -23 -12 -26 4 -4 9 1 13 10 8 20 24 21 24 1 0 -8 -4 -15 -8 -15 -5 0 -13
-12 -19 -27 -10 -25 -11 -26 -12 -6 -1 12 -7 23 -13 25 -10 4 -10 10 -1 29 8
19 8 31 -1 47 -12 23 -12 23 -30 3 -14 -16 -16 -23 -6 -38 8 -13 10 -13 7 -2
-3 9 -1 22 3 30 7 11 10 10 16 -5 4 -10 2 -26 -3 -35 -8 -13 -2 -33 28 -87 21
-38 42 -76 46 -84 20 -44 75 -120 87 -120 14 0 4 29 -12 34 -20 7 -59 73 -49
83 4 3 7 0 7 -7 0 -7 2 -11 5 -8 9 9 -7 38 -21 38 -16 0 -19 16 -5 24 5 4 12
0 14 -6 4 -8 6 -7 6 3 1 20 -26 33 -33 16 -2 -7 -5 2 -6 18 -1 17 -4 24 -7 17
-2 -6 -9 -10 -14 -6 -10 6 20 64 34 64 4 0 6 -17 3 -37 -3 -21 -3 -30 0 -20 8
25 21 21 28 -8 4 -14 11 -25 16 -25 6 0 10 -7 10 -15 0 -8 3 -15 8 -15 7 0 72
-111 72 -124 0 -3 -7 -6 -15 -6 -8 0 -15 -7 -15 -15 0 -8 -7 -15 -16 -15 -8 0
-13 -4 -9 -10 3 -5 13 -7 23 -4 14 5 14 4 3 -4 -12 -8 -8 -20 22 -64 41 -62
97 -126 97 -112 0 6 -11 21 -25 34 -24 23 -35 47 -15 35 6 -3 13 1 16 9 3 9
10 13 15 10 5 -3 9 -1 9 5 0 5 -4 13 -10 16 -5 3 -10 12 -10 18 0 7 9 -1 20
-18 23 -34 25 -46 9 -42 -6 1 -14 -5 -16 -13 -4 -13 -3 -13 6 -1 8 12 11 10
16 -12 4 -15 11 -27 16 -27 12 0 11 7 -1 31 -6 11 -7 19 -1 19 5 0 12 -8 17
-17 8 -21 8 -20 0 -55 -4 -17 -2 -28 4 -28 5 0 10 9 10 20 0 11 5 20 11 20 6
0 8 -7 5 -16 -3 -9 -6 -19 -6 -24 0 -5 -7 -16 -16 -25 -9 -9 -13 -19 -9 -23 4
-4 10 -1 12 6 3 7 10 18 17 25 7 7 10 19 8 26 -4 12 -3 12 10 0 16 -14 13 -39
-3 -39 -5 0 -9 -4 -9 -10 0 -18 17 -10 28 13 l11 22 0 -22 c1 -12 -3 -25 -9
-28 -5 -3 -10 -12 -10 -18 1 -7 10 -1 20 12 18 21 25 20 21 -1 0 -5 4 -8 10
-8 5 0 7 -5 4 -10 -4 -6 -11 -8 -16 -5 -5 3 -6 -1 -3 -9 7 -18 24 -21 24 -5 0
8 5 7 16 -2 10 -8 12 -15 5 -17 -6 -2 -9 -8 -6 -12 3 -5 12 -7 20 -3 19 7 19
-2 -1 -21 -8 -9 -11 -16 -5 -16 5 0 15 8 21 18 10 15 11 15 6 0 -6 -21 20 -75
42 -87 9 -4 23 -6 31 -3 8 3 11 0 7 -7 -4 -6 0 -14 9 -17 10 -4 13 -13 10 -24
-3 -10 -1 -21 4 -24 6 -4 7 -14 4 -24 -5 -13 -3 -14 6 -6 10 9 10 17 1 35
l-13 24 26 -24 c14 -13 23 -29 20 -37 -4 -10 0 -12 11 -8 14 5 16 2 11 -19 -7
-25 8 -46 20 -27 4 6 11 7 17 4 6 -4 1 -13 -13 -21 l-24 -14 24 5 c13 2 34 1
47 -4 13 -5 24 -8 24 -5 0 2 -20 25 -45 50 -75 79 -231 269 -307 375 -26 36
-55 76 -66 90 -84 113 -205 303 -274 430 -19 36 -40 74 -46 85 -12 22 -38 79
-100 220 -128 291 -282 900 -321 1270 -19 181 -24 424 -12 594 11 160 41 390
61 481 97 425 164 675 210 785 5 11 20 49 34 85 32 85 71 173 102 233 24 47
23 62 -3 30 -12 -16 -13 -15 -7 12 9 38 13 43 24 25 11 -17 12 -16 39 38 22
44 22 56 -1 23z m-80 -156 c-11 -25 -11 -25 -25 -5 -13 18 -13 24 3 47 l17 27
8 -22 c5 -13 4 -32 -3 -47z m-40 -12 c2 -52 -4 -82 -22 -126 -13 -33 -26 -53
-28 -45 -3 7 -9 10 -13 6 -4 -4 -2 -14 4 -22 7 -9 9 -20 4 -28 -10 -15 -35
-17 -46 -3 -4 6 -5 -3 -1 -18 3 -15 7 -33 7 -40 1 -24 -16 -97 -23 -97 -4 0
-12 -12 -18 -26 -7 -14 -8 -23 -2 -19 16 10 12 -11 -5 -25 -17 -14 -21 -35 -5
-25 6 3 7 -1 4 -9 -3 -9 -10 -16 -14 -16 -12 0 -20 29 -10 35 13 8 13 25 0 25
-5 0 -10 -6 -10 -14 0 -8 -4 -18 -10 -21 -6 -3 -10 5 -10 19 0 16 7 27 20 31
11 4 18 11 15 16 -4 5 1 9 10 9 9 0 13 5 10 10 -11 18 -35 10 -35 -12 0 -12
-3 -18 -6 -15 -4 4 -1 28 6 54 8 26 15 42 18 35 2 -7 8 -9 13 -6 6 4 6 11 -1
19 -7 9 -7 21 1 41 l11 29 10 -25 c5 -14 7 -33 4 -42 -2 -10 0 -18 5 -18 15 0
10 67 -6 80 -14 11 -13 15 12 59 2 2 9 -1 17 -8 11 -9 14 -6 18 18 2 17 1 28
-4 25 -4 -3 -8 -13 -8 -22 0 -10 -3 -13 -10 -6 -10 10 8 74 20 74 3 0 13 -12
22 -27 12 -19 18 -22 18 -12 0 9 -8 27 -19 40 -10 13 -16 30 -13 38 3 10 10 3
22 -18 l16 -33 -4 61 c-4 54 -2 61 14 61 14 0 15 3 6 12 -15 15 -16 31 0 22 8
-5 9 -2 5 9 -3 10 -3 17 2 17 4 0 8 -30 9 -67z m-81 -255 c-3 -8 -6 -5 -6 6
-1 11 2 17 5 13 3 -3 4 -12 1 -19z m-333 -1540 c4 -77 3 -118 -4 -118 -6 0
-10 47 -10 122 0 67 2 119 4 117 2 -2 6 -57 10 -121z m3 -300 c-3 -8 -6 -5 -6
6 -1 11 2 17 5 13 3 -3 4 -12 1 -19z m161 -563 c6 -27 9 -52 6 -54 -8 -8 -25
54 -28 108 -4 60 3 43 22 -54z m544 -1335 c9 -17 13 -30 8 -30 -6 0 -10 -5
-10 -11 0 -6 8 -8 19 -4 16 5 18 1 16 -27 -4 -42 -3 -41 -19 -26 -8 7 -12 16
-9 21 2 4 -1 7 -6 7 -14 0 -14 -17 -1 -25 6 -3 10 -11 10 -17 0 -7 -6 -6 -15
2 -8 7 -15 17 -15 23 0 6 -7 18 -16 28 -13 14 -13 22 -4 39 8 15 8 20 1 16
-15 -10 -14 2 2 19 17 20 20 19 39 -15z m327 -447 c9 -6 13 -15 8 -19 -4 -4
-7 -2 -7 4 0 7 -7 12 -15 12 -8 0 -15 4 -15 9 0 5 -3 18 -6 28 -5 15 -4 15 7
-2 7 -11 20 -25 28 -32z m141 -162 c0 -6 -4 -13 -10 -16 -5 -3 -10 1 -10 9 0
9 5 16 10 16 6 0 10 -4 10 -9z"/>
<path d="M9850 7838 c0 -7 5 -20 10 -28 8 -12 10 -11 10 7 0 12 -4 25 -10 28
-5 3 -10 0 -10 -7z"/>
<path d="M2020 7463 c0 -6 -3 -20 -7 -30 -7 -17 -6 -17 11 0 14 14 16 21 7 30
-8 8 -11 8 -11 0z"/>
<path d="M1990 7403 c0 -12 -4 -24 -10 -28 -5 -3 -6 -13 -3 -23 6 -14 8 -13
14 8 l7 25 1 -25 c1 -21 3 -22 11 -9 7 12 5 26 -5 45 -13 26 -15 27 -15 7z"/>
<path d="M1982 7296 c-7 -16 -8 -26 -1 -26 12 0 22 25 17 41 -2 6 -9 0 -16
-15z"/>
<path d="M1951 7134 c0 -11 3 -14 6 -6 3 7 2 16 -1 19 -3 4 -6 -2 -5 -13z"/>
<path d="M1900 7061 c0 -5 -3 -18 -7 -28 -6 -17 -6 -17 10 -1 19 18 22 38 7
38 -5 0 -10 -4 -10 -9z"/>
<path d="M1900 6972 c0 -18 5 -32 10 -32 6 0 8 11 4 28 -10 39 -14 40 -14 4z"/>
<path d="M10102 6920 c0 -19 2 -27 5 -17 2 9 2 25 0 35 -3 9 -5 1 -5 -18z"/>
<path d="M1880 6920 c0 -5 5 -10 10 -10 6 0 10 5 10 10 0 6 -4 10 -10 10 -5 0
-10 -4 -10 -10z"/>
<path d="M10142 6780 c0 -14 2 -19 5 -12 2 6 2 18 0 25 -3 6 -5 1 -5 -13z"/>
<path d="M1852 6700 c0 -14 2 -19 5 -12 2 6 2 18 0 25 -3 6 -5 1 -5 -13z"/>
<path d="M10141 6704 c0 -11 3 -14 6 -6 3 7 2 16 -1 19 -3 4 -6 -2 -5 -13z"/>
<path d="M1831 6658 c0 -7 4 -22 9 -33 8 -18 9 -17 9 7 1 15 -3 30 -9 33 -5 3
-10 0 -9 -7z"/>
<path d="M1862 6640 c0 -19 2 -27 5 -17 2 9 2 25 0 35 -3 9 -5 1 -5 -18z"/>
<path d="M10131 6624 c0 -11 3 -14 6 -6 3 7 2 16 -1 19 -3 4 -6 -2 -5 -13z"/>
<path d="M10146 6609 c-8 -43 -8 -94 1 -85 7 7 14 116 8 116 -1 0 -5 -14 -9
-31z"/>
<path d="M10172 6560 c0 -19 2 -27 5 -17 2 9 2 25 0 35 -3 9 -5 1 -5 -18z"/>
<path d="M1852 6545 c0 -16 2 -22 5 -12 2 9 2 23 0 30 -3 6 -5 -1 -5 -18z"/>
<path d="M1820 6502 c-10 -11 -11 -17 -2 -20 7 -2 12 -11 13 -20 0 -12 3 -10
10 6 13 33 -1 55 -21 34z"/>
<path d="M10162 6480 c0 -19 2 -27 5 -17 2 9 2 25 0 35 -3 9 -5 1 -5 -18z"/>
<path d="M1817 6434 c-12 -12 -8 -41 7 -53 12 -10 15 -6 21 19 4 17 4 34 1 37
-3 4 -6 -5 -7 -18 l-1 -24 -7 23 c-3 13 -9 20 -14 16z"/>
<path d="M10152 6420 c0 -14 2 -19 5 -12 2 6 2 18 0 25 -3 6 -5 1 -5 -13z"/>
<path d="M10177 6341 c-4 -35 -6 -91 -6 -125 1 -43 4 -27 10 54 9 126 6 173
-4 71z"/>
<path d="M1823 6280 c0 -25 2 -35 4 -22 2 12 2 32 0 45 -2 12 -4 2 -4 -23z"/>
<path d="M10193 6200 c0 -25 2 -35 4 -22 2 12 2 32 0 45 -2 12 -4 2 -4 -23z"/>
<path d="M10166 6064 c-3 -9 -6 -27 -6 -40 0 -13 -4 -24 -10 -24 -5 0 -10 -7
-10 -17 0 -9 3 -13 7 -10 3 4 12 2 20 -5 12 -10 13 -3 8 43 -5 39 -4 50 4 39
9 -12 11 -11 11 8 0 25 -15 30 -24 6z"/>
<path d="M1822 6000 c0 -19 2 -27 5 -17 2 9 2 25 0 35 -3 9 -5 1 -5 -18z"/>
<path d="M1832 5915 c0 -16 2 -22 5 -12 2 9 2 23 0 30 -3 6 -5 -1 -5 -18z"/>
<path d="M1851 5904 c0 -11 3 -14 6 -6 3 7 2 16 -1 19 -3 4 -6 -2 -5 -13z"/>
<path d="M10161 5904 c0 -11 3 -14 6 -6 3 7 2 16 -1 19 -3 4 -6 -2 -5 -13z"/>
<path d="M1842 5860 c0 -14 2 -19 5 -12 2 6 2 18 0 25 -3 6 -5 1 -5 -13z"/>
<path d="M10140 5795 c0 -11 -3 -30 -6 -42 -4 -13 -2 -23 4 -23 14 0 22 39 12
63 -8 21 -9 21 -10 2z"/>
<path d="M10121 5694 c0 -11 3 -14 6 -6 3 7 2 16 -1 19 -3 4 -6 -2 -5 -13z"/>
<path d="M10160 5625 c0 -14 -4 -25 -10 -25 -5 0 -10 -15 -11 -32 0 -18 -6
-60 -13 -93 -12 -52 -14 -56 -18 -30 -3 17 -4 11 -2 -12 2 -23 -1 -45 -7 -49
-6 -3 -8 -12 -5 -20 3 -8 1 -27 -5 -42 -11 -27 -15 -48 -18 -90 -1 -14 -5 -21
-12 -16 -8 4 -9 -1 -4 -15 4 -12 2 -27 -3 -34 -6 -7 -14 -30 -18 -52 -4 -22
-18 -57 -31 -78 -13 -21 -22 -44 -20 -50 2 -7 11 4 20 23 11 26 16 30 16 15 1
-11 -5 -29 -13 -40 -7 -11 -16 -41 -20 -67 -4 -26 -11 -50 -17 -53 -5 -4 -9
-17 -9 -31 0 -13 -4 -24 -10 -24 -5 0 -9 -3 -8 -7 5 -18 -14 -83 -24 -83 -9 0
-7 26 8 63 3 8 -1 17 -8 20 -10 3 -13 -8 -13 -45 0 -28 -3 -52 -7 -54 -4 -3
-2 -14 5 -26 9 -16 9 -22 0 -25 -7 -3 -13 -9 -13 -14 0 -5 -7 -21 -17 -35 -12
-19 -18 -22 -24 -12 -5 7 -6 -6 -4 -30 2 -29 0 -40 -7 -36 -7 5 -9 -2 -6 -20
3 -14 2 -28 -1 -31 -4 -2 -8 13 -9 33 -2 20 -6 40 -10 44 -4 4 -6 -12 -5 -35
2 -32 1 -37 -6 -22 -8 16 -10 17 -10 3 -1 -9 4 -20 9 -23 14 -8 13 -42 -1 -47
-6 -2 -12 -13 -14 -23 -3 -35 -27 -85 -36 -79 -10 6 -12 -19 -3 -29 7 -7 104
186 104 206 0 7 7 23 16 35 8 12 10 22 5 22 -6 0 -11 5 -11 11 0 5 4 8 9 4 5
-3 13 0 17 6 17 27 100 275 134 399 35 129 39 143 55 215 9 39 31 131 50 205
34 137 52 250 41 250 -3 0 -6 -11 -6 -25z"/>
<path d="M1876 5591 c-4 -7 -5 -15 -2 -18 9 -9 19 4 14 18 -4 11 -6 11 -12 0z"/>
<path d="M1881 5504 c0 -11 3 -14 6 -6 3 7 2 16 -1 19 -3 4 -6 -2 -5 -13z"/>
<path d="M10077 5393 c-3 -16 -2 -31 1 -35 4 -4 8 9 9 28 3 41 -3 45 -10 7z"/>
<path d="M1961 5184 c0 -11 3 -14 6 -6 3 7 2 16 -1 19 -3 4 -6 -2 -5 -13z"/>
<path d="M10020 5181 c0 -14 5 -19 15 -14 17 6 15 25 -3 31 -7 2 -12 -5 -12
-17z"/>
<path d="M10010 5140 c0 -5 5 -10 10 -10 6 0 10 5 10 10 0 6 -4 10 -10 10 -5
0 -10 -4 -10 -10z"/>
<path d="M9966 5028 c-8 -41 -3 -45 11 -8 6 17 8 32 3 35 -4 2 -10 -9 -14 -27z"/>
<path d="M2035 4870 c3 -5 8 -10 11 -10 2 0 4 5 4 10 0 6 -5 10 -11 10 -5 0
-7 -4 -4 -10z"/>
<path d="M2137 4634 c4 -11 8 -12 13 -4 5 8 9 3 13 -11 4 -13 9 -20 12 -17 4
3 2 16 -5 27 -13 25 -43 29 -33 5z"/>
<path d="M9850 4640 c0 -5 5 -10 10 -10 6 0 10 5 10 10 0 6 -4 10 -10 10 -5 0
-10 -4 -10 -10z"/>
<path d="M2100 4633 c1 -29 113 -283 125 -283 3 0 5 12 4 28 0 15 -3 21 -6 13
-9 -22 -36 59 -35 104 0 31 -1 35 -8 20 -7 -17 -9 -17 -9 -2 -1 9 -6 17 -12
17 -7 0 -8 12 -5 33 5 27 4 28 -4 10 -13 -32 -24 -29 -17 5 3 15 0 35 -7 45
-14 18 -26 23 -26 10z"/>
<path d="M9817 4597 c-3 -8 -2 -20 3 -26 5 -9 8 -4 8 13 0 29 -3 32 -11 13z"/>
<path d="M2201 4494 c0 -11 3 -14 6 -6 3 7 2 16 -1 19 -3 4 -6 -2 -5 -13z"/>
<path d="M9776 4461 c-3 -5 1 -11 9 -15 8 -3 15 -1 15 4 0 13 -18 22 -24 11z"/>
<path d="M9740 4367 c-28 -41 -31 -47 -26 -47 7 0 49 61 44 65 -2 2 -10 -6
-18 -18z"/>
<path d="M9690 4290 c0 -5 5 -10 10 -10 6 0 10 5 10 10 0 6 -4 10 -10 10 -5 0
-10 -4 -10 -10z"/>
<path d="M9713 4268 c-5 -18 -14 -32 -20 -31 -6 1 -9 -6 -6 -17 4 -15 8 -17
17 -7 18 18 36 53 36 71 0 28 -17 17 -27 -16z"/>
<path d="M9670 4188 c0 -10 -5 -18 -11 -18 -8 0 -7 -5 2 -16 11 -14 13 -14 21
0 5 10 5 23 -1 34 -10 16 -10 16 -11 0z"/>
<path d="M2387 4144 c3 -7 9 -14 14 -14 5 0 8 -10 6 -22 -1 -14 4 -23 13 -23
9 0 14 -8 12 -18 -2 -9 2 -17 8 -17 16 0 12 17 -12 60 -22 39 -53 64 -41 34z"/>
<path d="M9627 4102 c-4 -6 -13 -10 -20 -8 -7 1 -9 1 -4 -1 15 -9 7 -31 -11
-27 -24 7 -56 -60 -37 -76 8 -7 15 -7 19 -1 3 5 1 11 -5 13 -8 3 -8 10 2 26
16 25 34 30 25 6 -3 -8 -2 -12 4 -9 6 3 10 11 10 17 0 6 7 19 16 29 9 10 14
24 12 30 -3 10 -6 10 -11 1z"/>
<path d="M9430 3900 c0 -5 5 -10 10 -10 7 0 7 -6 0 -19 -12 -24 -13 -34 -1
-26 23 13 19 -17 -4 -37 -14 -12 -25 -27 -25 -33 0 -6 -9 -17 -20 -25 -11 -8
-20 -19 -20 -24 0 -5 -8 -15 -17 -22 -10 -7 -16 -15 -13 -18 3 -3 10 -2 15 2
17 12 65 80 65 91 0 6 4 11 9 11 5 0 19 13 31 30 20 28 20 31 5 60 -15 29 -35
41 -35 20z m40 -51 c0 -6 -4 -7 -10 -4 -5 3 -10 11 -10 16 0 6 5 7 10 4 6 -3
10 -11 10 -16z"/>
<path d="M9305 3764 c-41 -59 -162 -211 -226 -284 -41 -47 -47 -60 -26 -60 17
0 46 20 29 20 -7 0 -10 5 -7 10 5 8 11 8 20 0 9 -8 14 -7 18 4 4 10 1 13 -9 9
-7 -3 -14 0 -14 6 0 6 5 11 10 11 6 0 15 10 20 23 5 12 9 16 9 10 1 -19 31
-16 31 3 0 8 -5 12 -11 8 -8 -5 -8 -1 0 12 12 22 56 75 46 57 -3 -7 -2 -13 3
-13 6 0 13 7 16 16 5 13 9 13 33 -6 l27 -21 18 23 c10 13 18 31 18 41 0 12 5
16 13 11 9 -5 9 -4 0 6 -16 18 -35 2 -28 -23 6 -20 5 -21 -8 -5 -8 10 -17 15
-20 11 -11 -10 -8 -25 3 -18 6 3 10 -1 10 -9 0 -13 -4 -14 -24 -4 -27 12 -47
44 -21 35 8 -4 17 -2 20 3 4 6 1 10 -6 10 -8 0 -8 4 1 15 11 13 15 13 21 3 7
-10 12 -9 26 6 17 18 17 19 0 12 -15 -5 -17 -2 -12 17 4 12 12 27 18 32 7 7 8
4 4 -8 -4 -11 -3 -16 4 -12 5 4 9 14 7 23 -6 30 14 42 37 24 20 -17 20 -17 3
4 -20 23 -24 39 -8 29 6 -3 10 -2 10 4 0 28 -21 15 -55 -35z"/>
<path d="M2570 3781 c0 -6 5 -13 10 -16 6 -3 10 1 10 9 0 9 -4 16 -10 16 -5 0
-10 -4 -10 -9z"/>
<path d="M2641 3700 c0 -8 6 -24 14 -34 19 -25 19 -9 0 24 -8 14 -14 19 -14
10z"/>
<path d="M9320 3693 c0 -12 5 -25 11 -28 16 -11 17 -2 2 25 -12 24 -13 24 -13
3z"/>
<path d="M2680 3635 c0 -8 4 -15 9 -15 5 0 11 7 15 15 3 9 0 15 -9 15 -8 0
-15 -7 -15 -15z"/>
<path d="M2720 3631 c0 -5 5 -13 10 -16 6 -3 10 -2 10 4 0 5 -4 13 -10 16 -5
3 -10 2 -10 -4z"/>
<path d="M2737 3583 c-3 -4 3 -19 14 -32 18 -22 19 -22 19 -3 0 21 -25 48 -33
35z"/>
<path d="M9220 3571 c0 -6 5 -13 10 -16 8 -5 7 -11 -1 -21 -7 -9 -8 -14 -1
-14 13 0 26 36 17 50 -8 13 -25 13 -25 1z"/>
<path d="M9160 3540 c0 -5 6 -10 14 -10 7 0 19 -7 26 -15 10 -12 10 -15 -4
-15 -8 0 -22 -13 -30 -29 -9 -16 -22 -31 -30 -34 -8 -3 -14 -15 -13 -26 0 -11
5 -18 9 -15 4 3 4 12 1 21 -5 13 -2 15 12 9 11 -4 16 -4 13 0 -4 4 8 22 28 42
l35 35 -22 23 c-24 25 -39 31 -39 14z"/>
<path d="M2789 3513 c-13 -16 -12 -17 4 -4 16 13 21 21 13 21 -2 0 -10 -8 -17
-17z"/>
<path d="M2820 3476 c0 -18 17 -29 30 -21 8 5 7 11 -1 21 -15 18 -29 18 -29 0z"/>
<path d="M2848 3433 c6 -2 18 -2 25 0 6 3 1 5 -13 5 -14 0 -19 -2 -12 -5z"/>
<path d="M8992 3384 c-44 -49 -45 -52 -17 -46 14 2 25 10 25 16 0 19 28 52 36
43 5 -4 2 -12 -5 -16 -21 -13 1 -19 37 -9 34 9 35 28 2 28 -10 0 -22 5 -25 10
-10 16 -20 12 -53 -26z"/>
<path d="M2870 3401 c0 -5 5 -13 10 -16 6 -3 10 -2 10 4 0 5 -4 13 -10 16 -5
3 -10 2 -10 -4z"/>
<path d="M2910 3401 c0 -5 5 -13 10 -16 6 -3 10 -2 10 4 0 5 -4 13 -10 16 -5
3 -10 2 -10 -4z"/>
<path d="M2914 3356 c11 -9 24 -16 30 -16 12 0 7 5 -24 19 -24 11 -24 11 -6
-3z"/>
<path d="M9040 3350 l-35 -7 37 -2 c20 0 40 4 43 9 7 11 7 11 -45 0z"/>
<path d="M3007 3249 c7 -7 15 -10 18 -7 3 3 -2 9 -12 12 -14 6 -15 5 -6 -5z"/>
<path d="M8941 3243 c-9 -7 -26 -13 -38 -13 -13 0 -23 -5 -23 -11 0 -5 -4 -8
-8 -5 -5 3 -19 -9 -32 -26 -19 -25 -20 -30 -6 -25 10 4 20 7 22 7 2 0 4 9 4
20 0 11 3 19 8 18 22 -6 102 16 117 32 16 18 16 19 -5 17 -12 -1 -30 -7 -39
-14z"/>
<path d="M3036 3215 c4 -8 15 -15 25 -15 10 0 19 -4 19 -10 0 -5 5 -10 10 -10
19 0 10 16 -19 33 -36 21 -42 21 -35 2z"/>
<path d="M8887 3170 c-14 -16 -34 -30 -43 -30 -14 0 -15 -3 -6 -12 10 -10 21
-4 53 30 22 23 36 42 31 42 -6 0 -22 -13 -35 -30z"/>
<path d="M3122 3145 c6 -14 15 -25 19 -25 5 0 3 11 -3 25 -6 14 -15 25 -19 25
-5 0 -3 -11 3 -25z"/>
<path d="M8800 3140 c0 -5 5 -10 11 -10 5 0 7 5 4 10 -3 6 -8 10 -11 10 -2 0
-4 -4 -4 -10z"/>
<path d="M8792 3094 c-18 -20 -11 -35 10 -20 9 7 14 17 10 23 -5 7 -11 6 -20
-3z"/>
<path d="M8649 3064 c-16 -20 -20 -42 -8 -50 5 -3 10 0 10 5 3 21 4 26 13 39
12 20 1 25 -15 6z"/>
<path d="M3357 3040 c3 -11 8 -18 12 -16 3 2 11 -2 18 -9 10 -10 9 -16 -2 -25
-10 -9 -14 -7 -18 7 -3 10 -4 7 -4 -8 1 -19 6 -25 17 -22 10 3 9 0 -4 -11 -11
-9 -17 -19 -13 -22 3 -4 13 1 22 10 30 29 49 35 69 20 18 -12 18 -15 4 -31
-17 -21 -32 -57 -19 -49 4 3 24 -4 44 -14 36 -20 37 -20 37 -1 0 10 -6 19 -12
18 -54 -2 -85 16 -33 19 14 1 22 -2 19 -7 -3 -5 0 -9 6 -9 7 0 10 7 6 15 -7
20 -3 19 36 -5 35 -21 32 -27 -5 -9 -19 9 -20 8 -6 -3 9 -8 18 -22 21 -33 2
-12 12 -20 23 -20 11 -1 26 -4 33 -8 6 -5 17 -5 24 -1 7 5 8 3 4 -5 -5 -7 -15
-10 -25 -6 -12 5 -13 3 -5 -5 9 -9 17 -9 32 -1 27 14 35 14 26 -1 -4 -6 -3 -8
2 -5 5 3 21 -4 34 -15 16 -12 19 -18 8 -14 -10 3 -20 1 -23 -4 -4 -6 -2 -10 4
-10 5 0 17 -3 27 -7 12 -4 15 -3 10 5 -4 7 -4 12 -1 12 11 0 35 -28 35 -42 0
-10 -2 -10 -8 -1 -7 10 -12 10 -26 0 -16 -11 -15 -13 9 -12 15 1 31 8 36 16 5
8 9 12 10 9 0 -3 2 -14 4 -25 5 -24 43 -57 56 -49 5 3 6 10 3 16 -4 6 -1 8 7
6 8 -3 13 -11 11 -18 -2 -8 3 -10 13 -7 9 4 15 1 15 -9 0 -11 -6 -13 -22 -8
-20 6 -21 5 -10 -9 13 -15 16 -15 38 0 15 9 24 11 24 4 0 -6 6 -11 14 -11 8 0
28 -13 45 -29 18 -17 32 -24 36 -17 3 8 7 7 11 -2 3 -6 11 -9 16 -6 7 5 8 2 3
-6 -5 -8 -21 -10 -46 -7 -22 3 -39 1 -39 -4 0 -12 38 -31 42 -20 5 14 78 25
78 12 0 -6 7 -11 15 -11 19 0 19 -17 1 -36 -9 -9 -17 -10 -21 -4 -3 5 -16 10
-28 10 -13 0 -17 -4 -11 -9 14 -15 97 -22 114 -10 11 7 8 8 -12 3 -18 -4 -28
-2 -28 5 0 6 5 11 11 11 5 0 7 5 4 10 -8 13 -3 13 36 -5 19 -8 27 -15 19 -15
-12 0 -11 -3 3 -11 9 -5 22 -7 28 -3 6 3 20 -3 32 -14 12 -11 37 -23 55 -27
18 -4 30 -10 27 -15 -3 -4 5 -6 17 -3 17 3 19 2 10 -5 -18 -13 7 -23 37 -15
15 4 21 1 19 -8 -2 -8 4 -14 12 -14 8 0 20 -4 27 -8 6 -4 19 -4 29 0 13 5 15
3 9 -7 -6 -10 -4 -12 8 -7 9 3 19 2 22 -3 3 -5 -3 -10 -12 -13 -10 -2 -2 -2
18 0 23 3 40 0 45 -8 4 -8 3 -10 -4 -5 -7 4 -19 3 -28 -2 -11 -6 -1 -8 32 -7
27 1 60 -2 74 -5 l25 -6 -28 -7 c-16 -4 -27 -13 -24 -20 5 -16 33 -16 30 1 -4
16 2 15 43 -4 19 -9 38 -14 41 -10 3 3 -1 6 -9 6 -9 0 -21 7 -28 15 -15 18
-17 18 49 -4 29 -10 48 -20 43 -22 -7 -3 -5 -12 5 -24 15 -19 15 -19 8 4 -6
20 -4 23 10 18 9 -4 26 -7 36 -7 12 0 17 -4 13 -11 -4 -7 6 -10 32 -9 60 4 86
1 79 -9 -3 -5 0 -13 6 -17 6 -3 15 -1 19 6 5 9 13 6 28 -10 17 -19 28 -22 62
-17 22 3 40 1 40 -4 0 -9 -57 -14 -129 -12 -22 0 -29 -2 -20 -8 16 -10 145 -1
170 12 9 5 26 2 43 -6 14 -8 33 -12 40 -9 8 3 30 -2 51 -10 21 -9 58 -17 84
-17 33 -2 38 -3 16 -6 -16 -3 -34 -9 -40 -15 -7 -7 -1 -9 19 -4 71 17 86 18
86 7 0 -7 13 -9 39 -5 22 4 55 1 77 -6 21 -7 76 -13 122 -14 46 0 76 -3 66 -6
-22 -8 446 -4 579 4 54 4 109 11 123 16 35 14 104 13 84 0 -12 -8 -10 -10 9
-10 17 0 22 4 17 16 -5 14 -1 16 31 10 21 -3 49 -9 63 -12 17 -5 22 -4 15 4
-5 6 -23 12 -40 15 -22 3 -17 4 16 6 26 0 63 8 84 17 21 8 43 13 51 10 7 -3
27 2 44 11 29 14 33 14 50 -2 13 -12 25 -15 37 -9 16 7 16 8 -4 11 -44 8 -25
26 20 19 35 -5 45 -3 61 15 15 17 20 19 27 8 6 -11 11 -11 20 -2 21 21 -16 26
-73 10 -110 -32 -350 -78 -538 -104 -159 -22 -641 -25 -805 -5 -180 22 -381
61 -603 117 -57 15 -110 24 -118 21 -9 -3 -12 -1 -9 4 3 6 -2 10 -13 10 -21 0
-252 69 -327 98 -27 10 -88 34 -135 52 -276 105 -590 289 -928 543 -53 39
-104 78 -113 84 -15 11 -16 10 -12 -7z m58 -60 c-3 -5 -11 -10 -16 -10 -6 0
-7 5 -4 10 3 6 11 10 16 10 6 0 7 -4 4 -10z m79 -49 c3 -5 -1 -11 -9 -15 -15
-6 -29 7 -18 18 9 9 21 8 27 -3z m96 -66 c10 -12 10 -15 -4 -15 -9 0 -16 7
-16 15 0 8 2 15 4 15 2 0 9 -7 16 -15z m1483 -662 c-7 -2 -19 -2 -25 0 -7 3
-2 5 12 5 14 0 19 -2 13 -5z"/>
<path d="M8587 3014 c-34 -29 -302 -220 -402 -285 -72 -48 -263 -159 -325
-190 -70 -34 -211 -99 -216 -99 -3 0 -20 -6 -37 -14 -113 -49 -354 -129 -469
-156 -99 -22 -121 -31 -70 -28 15 1 38 -2 52 -6 22 -7 23 -7 7 5 -15 13 -13
14 22 17 22 1 42 -2 46 -8 3 -5 12 -10 18 -10 7 0 3 6 -8 12 -17 10 -13 13 35
30 30 11 64 22 75 25 l20 5 -20 -15 c-11 -9 -15 -17 -7 -17 6 0 21 9 32 20 11
11 26 20 33 20 7 0 18 5 25 12 6 6 31 11 56 12 37 1 42 3 33 15 -10 12 -8 13
13 8 16 -4 30 -1 42 10 10 9 21 13 25 9 4 -4 1 -11 -7 -16 -8 -5 -12 -12 -8
-15 7 -8 38 23 38 38 0 16 57 40 76 33 8 -3 13 -2 9 3 -3 5 9 12 27 16 18 4
41 14 51 23 9 8 27 16 40 17 12 2 21 8 20 14 -2 6 2 11 7 11 6 0 10 -4 10 -10
0 -5 5 -10 10 -10 6 0 10 7 10 15 0 9 10 15 26 15 21 0 25 -4 19 -17 -5 -15
-4 -16 6 -5 10 9 10 15 1 24 -17 17 -15 28 5 21 10 -4 14 -2 10 4 -4 7 5 14
23 18 16 4 30 11 30 16 0 6 9 8 19 4 14 -4 32 5 59 30 22 19 45 35 51 35 6 0
11 4 11 10 0 5 7 7 15 3 9 -3 15 -2 14 3 -4 21 2 28 11 14 8 -13 10 -12 10 3
0 13 9 17 39 17 22 0 41 -5 43 -12 6 -17 28 0 28 22 0 14 -5 18 -16 13 -25 -9
-13 27 15 46 23 15 24 15 13 -5 -10 -18 -8 -23 16 -33 24 -10 25 -10 10 2 -25
20 -22 30 6 23 28 -7 46 12 25 25 -8 4 -16 4 -20 -3 -4 -6 -9 -7 -13 0 -3 5 3
17 13 26 15 14 24 15 39 7 12 -6 30 -7 48 -1 24 7 25 8 7 9 -15 1 -21 6 -17
15 4 10 20 13 61 10 46 -3 53 -2 44 10 -10 11 -6 16 16 24 15 6 22 11 15 11
-7 1 -11 5 -7 10 8 13 -10 22 -29 15 -15 -6 -15 -8 1 -20 10 -7 13 -14 8 -14
-6 0 -16 5 -22 11 -8 8 -13 8 -17 0 -4 -6 0 -11 8 -11 10 0 13 -6 10 -15 -7
-17 -49 -20 -59 -5 -3 6 1 10 9 10 9 0 15 4 14 9 -2 5 25 29 60 55 34 25 62
41 62 35 0 -5 5 -7 10 -4 6 4 8 10 5 15 -3 5 0 12 6 16 7 4 9 3 6 -3 -8 -13
20 -26 36 -16 7 4 6 -1 -2 -10 -11 -14 -11 -17 1 -17 16 0 22 36 7 45 -5 4 -9
1 -9 -4 0 -6 -4 -11 -10 -11 -11 0 -9 28 3 48 13 20 -6 13 -36 -14z m-200
-184 c-1 -20 -9 -25 -20 -13 -4 3 -2 12 4 20 15 18 18 17 16 -7z m-157 -100
c0 -5 -5 -10 -11 -10 -5 0 -7 5 -4 10 3 6 8 10 11 10 2 0 4 -4 4 -10z m-205
-120 c-10 -11 -22 -20 -28 -20 -5 0 1 9 14 20 31 25 37 25 14 0z"/>
<path d="M3410 2940 c0 -5 5 -10 11 -10 5 0 7 5 4 10 -3 6 -8 10 -11 10 -2 0
-4 -4 -4 -10z"/>
<path d="M8541 2941 c-8 -5 -9 -11 -3 -15 5 -3 12 1 16 9 6 17 6 18 -13 6z"/>
<path d="M8560 2919 c0 -5 5 -7 10 -4 6 3 10 8 10 11 0 2 -4 4 -10 4 -5 0 -10
-5 -10 -11z"/>
<path d="M3400 2910 c0 -5 7 -10 16 -10 8 0 12 5 9 10 -3 6 -10 10 -16 10 -5
0 -9 -4 -9 -10z"/>
<path d="M3520 2830 c0 -5 5 -10 10 -10 6 0 10 5 10 10 0 6 -4 10 -10 10 -5 0
-10 -4 -10 -10z"/>
<path d="M3580 2795 c7 -9 15 -13 17 -11 7 7 -7 26 -19 26 -6 0 -6 -6 2 -15z"/>
<path d="M8400 2790 c0 -5 7 -7 15 -4 8 4 15 8 15 10 0 2 -7 4 -15 4 -8 0 -15
-4 -15 -10z"/>
<path d="M3627 2784 c-13 -13 -7 -24 14 -24 11 0 19 5 17 12 -5 14 -22 21 -31
12z"/>
<path d="M3660 2730 c0 -14 28 -19 33 -6 3 6 -4 13 -14 13 -10 1 -19 -2 -19
-7z"/>
<path d="M3730 2702 c0 -5 7 -16 16 -23 14 -12 16 -11 13 5 -4 20 -29 35 -29
18z"/>
<path d="M3815 2630 c3 -5 10 -10 16 -10 5 0 9 5 9 10 0 6 -7 10 -16 10 -8 0
-12 -4 -9 -10z"/>
<path d="M8160 2624 c0 -14 3 -15 18 -3 9 7 19 15 21 16 2 2 -5 3 -17 3 -14 0
-22 -6 -22 -16z"/>
<path d="M8070 2623 c0 -5 5 -15 10 -23 7 -12 12 -12 22 -2 10 10 10 15 -2 22
-18 12 -30 13 -30 3z"/>
<path d="M3880 2600 c0 -12 50 -33 58 -25 3 3 0 5 -7 5 -8 0 -11 7 -7 15 4 11
-1 15 -19 15 -14 0 -25 -5 -25 -10z"/>
<path d="M8032 2581 c-38 -34 -45 -62 -9 -38 12 8 22 20 22 26 0 6 7 16 15 21
8 5 12 11 10 14 -3 3 -20 -8 -38 -23z"/>
<path d="M4030 2530 c0 -5 5 -10 10 -10 6 0 10 5 10 10 0 6 -4 10 -10 10 -5 0
-10 -4 -10 -10z"/>
<path d="M7853 2479 c-13 -13 -6 -42 8 -33 5 3 6 10 3 16 -4 6 0 14 7 19 8 5
9 9 4 9 -6 0 -16 -5 -22 -11z"/>
<path d="M7768 2453 c7 -3 16 -2 19 1 4 3 -2 6 -13 5 -11 0 -14 -3 -6 -6z"/>
<path d="M4242 2439 c4 -13 58 -32 67 -24 7 7 -3 14 -25 18 -10 1 -25 6 -33
11 -9 6 -12 5 -9 -5z"/>
<path d="M7720 2430 c-18 -12 -2 -12 25 0 13 6 15 9 5 9 -8 0 -22 -4 -30 -9z"/>
<path d="M7655 2408 c11 -6 23 -15 26 -20 3 -5 14 -6 23 -2 14 5 10 10 -21 20
-46 17 -55 17 -28 2z"/>
<path d="M7750 2410 c-18 -12 -2 -12 25 0 13 6 15 9 5 9 -8 0 -22 -4 -30 -9z"/>
<path d="M4308 2403 c-21 -5 -24 -23 -4 -23 8 0 16 7 20 15 3 8 4 14 3 14 -1
-1 -10 -3 -19 -6z"/>
<path d="M7600 2357 c0 -15 -5 -27 -12 -27 -6 0 -9 -3 -6 -6 4 -3 18 1 33 8
l26 14 -21 19 c-20 18 -20 18 -20 -8z"/>
<path d="M4450 2341 c0 -26 16 -35 37 -21 17 11 17 11 1 6 -13 -4 -18 0 -18
14 0 11 -4 20 -10 20 -5 0 -10 -9 -10 -19z"/>
<path d="M7430 2329 c-11 -8 -9 -9 10 -3 22 6 23 5 11 -10 -8 -9 -11 -19 -7
-23 3 -3 6 -2 6 4 0 6 15 14 33 18 32 7 32 7 7 15 -35 11 -43 11 -60 -1z"/>
<path d="M7525 2320 c-3 -5 1 -10 9 -10 9 0 16 5 16 10 0 6 -4 10 -9 10 -6 0
-13 -4 -16 -10z"/>
<path d="M7468 2283 c7 -3 16 -2 19 1 4 3 -2 6 -13 5 -11 0 -14 -3 -6 -6z"/>
<path d="M4655 2270 c3 -5 14 -10 23 -10 15 0 15 2 2 10 -20 13 -33 13 -25 0z"/>
<path d="M7306 2264 c-17 -12 -17 -14 -3 -20 9 -3 24 -4 34 -1 13 3 11 5 -7 7
-22 1 -23 2 -6 9 11 4 15 10 10 13 -5 4 -18 0 -28 -8z"/>
<path d="M4719 2250 c-13 -10 -19 -19 -12 -20 6 0 15 5 18 10 4 6 16 8 28 5
12 -2 16 -2 9 1 -6 3 -10 10 -6 15 10 16 -13 10 -37 -11z"/>
<path d="M7240 2256 c0 -2 9 -6 20 -9 11 -3 20 -1 20 4 0 5 -9 9 -20 9 -11 0
-20 -2 -20 -4z"/>
<path d="M7120 2210 c0 -5 6 -10 14 -10 8 0 18 5 21 10 3 6 -3 10 -14 10 -12
0 -21 -4 -21 -10z"/>
<path d="M4975 2190 c28 -12 37 -12 30 0 -3 6 -16 10 -28 9 -21 0 -21 -1 -2
-9z"/>
<path d="M6995 2190 c-7 -12 2 -12 30 0 19 8 19 9 -2 9 -12 1 -25 -3 -28 -9z"/>
<path d="M6960 2168 c0 -10 52 -10 67 0 7 5 -4 8 -27 7 -22 0 -40 -3 -40 -7z"/>
<path d="M5148 2163 c7 -3 16 -2 19 1 4 3 -2 6 -13 5 -11 0 -14 -3 -6 -6z"/>
<path d="M6838 2163 c7 -3 16 -2 19 1 4 3 -2 6 -13 5 -11 0 -14 -3 -6 -6z"/>
<path d="M6880 2140 c0 -5 9 -10 21 -10 11 0 17 5 14 10 -3 6 -13 10 -21 10
-8 0 -14 -4 -14 -10z"/>
<path d="M5488 2103 c6 -2 18 -2 25 0 6 3 1 5 -13 5 -14 0 -19 -2 -12 -5z"/>
<path d="M5368 2093 c7 -3 16 -2 19 1 4 3 -2 6 -13 5 -11 0 -14 -3 -6 -6z"/>
<path d="M6470 2090 c-13 -9 -13 -10 0 -11 8 -1 -3 -5 -25 -9 -25 -5 -12 -6
35 -3 41 3 81 8 89 13 7 4 -11 6 -40 4 -39 -3 -48 -2 -34 5 14 7 15 10 5 10
-8 0 -22 -4 -30 -9z"/>
<path d="M6618 2093 c7 -3 16 -2 19 1 4 3 -2 6 -13 5 -11 0 -14 -3 -6 -6z"/>
<path d="M5503 2083 c9 -2 23 -2 30 0 6 3 -1 5 -18 5 -16 0 -22 -2 -12 -5z"/>
<path d="M5583 2083 c9 -2 25 -2 35 0 9 3 1 5 -18 5 -19 0 -27 -2 -17 -5z"/>
<path d="M6383 2083 c9 -2 25 -2 35 0 9 3 1 5 -18 5 -19 0 -27 -2 -17 -5z"/>
<path d="M6641 2064 c0 -11 3 -14 6 -6 3 7 2 16 -1 19 -3 4 -6 -2 -5 -13z"/>
<path d="M6670 2065 c0 -8 5 -15 10 -15 6 0 10 7 10 15 0 8 -4 15 -10 15 -5 0
-10 -7 -10 -15z"/>
<path d="M6711 2064 c0 -11 3 -14 6 -6 3 7 2 16 -1 19 -3 4 -6 -2 -5 -13z"/>
<path d="M5458 2063 c12 -2 32 -2 45 0 12 2 2 4 -23 4 -25 0 -35 -2 -22 -4z"/>
<path d="M6258 2013 c12 -2 32 -2 45 0 12 2 2 4 -23 4 -25 0 -35 -2 -22 -4z"/>
<path d="M6018 1993 c12 -2 32 -2 45 0 12 2 2 4 -23 4 -25 0 -35 -2 -22 -4z"/>
<path d="M6058 1973 c7 -3 16 -2 19 1 4 3 -2 6 -13 5 -11 0 -14 -3 -6 -6z"/>
</g>
</svg>
